<?xml version="1.0" encoding="UTF-8"?>
<svg id="Layer_2" data-name="Layer 2" xmlns="http://www.w3.org/2000/svg" viewBox="0 0 129.11 184.58">
  <defs>
    <style>
      .cls-1 {
        fill: #eaad85;
      }

      .cls-2 {
        fill: #af2c15;
      }

      .cls-3 {
        fill: #00b8b5;
      }

      .cls-4 {
        fill: #f16f83;
      }

      .cls-5 {
        fill: #3b332f;
      }

      .cls-6 {
        fill: #b9b9ba;
      }

      .cls-7 {
        fill: #f27067;
      }

      .cls-8 {
        fill: none;
        stroke: #000;
        stroke-linecap: round;
        stroke-linejoin: round;
      }

      .cls-9 {
        fill: #864399;
      }

      .cls-10 {
        fill: #502a2a;
      }

      .cls-11 {
        fill: #1a1715;
      }

      .cls-12 {
        fill: #009996;
      }

      .cls-13 {
        fill: #fff;
      }

      .cls-14 {
        fill: #ef6464;
      }

      .cls-15 {
        fill: #d48565;
      }

      .cls-16 {
        fill: #ef4b23;
      }

      .cls-17 {
        fill: #bd5454;
      }

      .cls-18 {
        fill: #f26e38;
      }

      .cls-19 {
        fill: #fbc6a4;
      }

      .cls-20 {
        fill: #6d494d;
      }

      .cls-21 {
        fill: #da3920;
      }

      .cls-22 {
        fill: #f89a1c;
      }
    </style>
  </defs>
  <g id="Layer_1-2" data-name="Layer 1">
    <g id="ide35b868c429ecc681bc720bf">
      <g id="id6da885bf1955c2fe27d84645">
        <path id="id25705329271d59aa2562c1d0" class="cls-22" d="M25.68,178.64c0,4.79,14.64,5.95,32.7,5.95s32.7-1.16,32.7-5.95-14.64-6.37-32.7-6.37-32.7,1.59-32.7,6.37h0"/>
      </g>
      <g id="id8fdefe729f25ae0be773abc7">
        <g id="idf22ee522ecc3abb801ffd87c">
          <path id="ide76caa3cc1ce45d82664b47c" class="cls-19" d="M17.48,112.37c-.86-.52-1.71-1.07-2.56-1.66-1.38.9-3.13.26-5.26-1.07-1.81-.47-2.95-1.1-2.62-1.75.33-.68,2.28,0,2.79.11-.07-.06-2.36-1.16-2.86-1.44-1.14-.65-.66-1.81.42-1.43.9.3,2.93,1.19,3.03,1.23-.09-.08-2.3-1.55-2.71-1.83-1.21-.78-.51-2.25.91-1.37.96.59,2.6,1.7,2.77,1.75-.02-.09-1.04-1.2-1.59-1.89-.9-1.16-.05-2.08,1.21-.97.99.88,3.44,2.9,3.44,2.9,0,0,.13-2.17,1.33-2.08,1.2.09.86,3.88.86,3.88,0,0,.77.59,2.23,1.48.49,1.31-.02,4.59-1.39,4.16h0"/>
        </g>
        <g id="id0c92b17df20292aa76b98756">
          <path id="id216794659dde56fab56564c6" class="cls-9" d="M66.26,103.13c5.27-.09,13.46,4.69,23.1-7.04,2.1.64,3.05,3.99,3,5.05-3.83,6.07-10.03,14.26-22.85,11.18-1.03-3.83-3.26-9.19-3.26-9.19h0"/>
        </g>
        <g id="id1bcc1ff6d0c6c844acca8a79">
          <g id="idae916e64890bf61f1ecd9c50">
            <path id="id579a68458ef9660b71b41e9c" class="cls-19" d="M53.86,99.32s.6,3.96.75,5.05c-4.08,1.42-6.44,1.81-6.44,1.81l1.76,6.13,14.1-1.59.38-7.27s-2.78.53-6.58.43c-.3-2.22-.66-5.2-.66-5.2l-3.31.63h0"/>
          </g>
          <g id="id76e095221b8e8f76b2da2828">
            <path id="idb6469267c1eeecc4bd298cc5" class="cls-1" d="M59.91,103.87c-.65.02-1.35.02-2.07,0-.3-2.22-.66-5.2-.66-5.2l-3.31.63s.6,3.96.75,5.05c-.56.2-1.09.37-1.58.52,4.62,1.76,6.49-.42,6.89-1.03h0"/>
          </g>
        </g>
        <g id="id2ca75c73a3aa7ac7dda0d17c">
          <path id="id8fbddf278e5a765c640b6b7c" class="cls-6" d="M46.96,138.99s1.46,13.06-9.89,23.49c-1.06,2.11,2.54,5.27,4.78,5.45,7.06-4.58,17.34-17.67,18.92-27.63-5.26-4.92-13.81-1.3-13.81-1.3h0"/>
        </g>
        <g id="id7a8954b5d649320b59b9fdf1">
          <path id="id105d487c298777af2c9e4188" class="cls-6" d="M61.28,136.48s7.69,13.29,7.19,28.7c.75,2.23,5.5,1.6,7.18.11,1.68-8.24,1.1-23.29-3.1-32.79-7.21.3-11.28,3.97-11.28,3.97h0"/>
        </g>
        <g id="id30505beb1bba29f4f4b35ca2">
          <path id="id2fac71235b9329e970c2a7fe" class="cls-20" d="M39.07,160.73c1.18,1.03,2.04,2.15,4.58,4.27,1.53,1.27.85,1.47-.22,2.8-.4.5-.65.83-1.27,1.54,1.78,1.6,3.71,7.12.4,10.52-2.23,2.28-6.15,1.11-9.28-2.74-3.05-3.74-3.91-6.3-3.59-6.99.5-1.07,4.93-6.51,7.62-8.79.43-.36.95-1.31,1.74-.62h0"/>
        </g>
        <g id="idcb254d64c1875fc9aa45daac">
          <path id="idcc54d656dc816ad265b1c77e" class="cls-20" d="M68.69,162.97c1.57-.06,2.96.18,6.27-.02,1.99-.12,1.62.49,1.77,2.2.05.63.1,1.06.13,1.98,2.39-.04,7.57,2.66,7.48,7.41-.06,3.19-3.72,5.02-8.64,4.36-4.78-.64-7.16-1.92-7.4-2.64-.37-1.13-.86-8.12-.45-11.63.06-.55-.21-1.6.85-1.64h0"/>
        </g>
        <g id="id5ee0ce2815dbc29f29b8706e">
          <path id="id109bdc1dea62eef3c29bc45d" class="cls-9" d="M44.11,107.03c.25-.64,5.57-2.31,8.32-2,1.58,4.46,9.97,3.93,7.47-1.15,1.25-.42,4.78-.92,6.55-.93,6.4,6.4,15.11,26.62,13.84,36.63-.89,3.95-32.24,5.42-38.17,2.89-3.87-1.39,4.66-21.74,1.43-28.55,2.51-1,2.24-5.12.54-6.87h0"/>
        </g>
        <g id="ide1ce29a60501bbe2ab17b512">
          <path id="id8d3b8fc7c4e360a05bd475ad" class="cls-9" d="M44.34,106.92c-3.98,1-14.57,3.57-26.68.08-1.64,1.53-2.31,5.88-1.52,6.88,4.68,3.53,23.17,4.42,29.04,2.81,2.44-.3,1.79-7.67-.84-9.77h0"/>
        </g>
        <g id="id061cbb5806e6589655825129">
          <g id="id232cf1045c3b89bd2bfd2f67">
            <g id="id051b4ffccae9471ee57094d3">
              <path id="idc923f2d407e2a851abce1380" class="cls-12" d="M78.34,120.59c-2.02-.28-3.36-.86-3.42-.89-.13-.06-.19-.21-.13-.33.05-.13.2-.18.33-.13.02,0,1.7.74,4.08.94.14.02.24.13.22.27,0,.14-.13.24-.27.23-.28-.02-.55-.05-.81-.08h0"/>
            </g>
            <g id="id7c519c5be20db72ce7ecd7f1">
              <path id="id3b8eae40b3aff7b4ee659b89" class="cls-12" d="M78.54,122.44h0c-2.44-.37-4.09-1.22-4.16-1.25-.12-.06-.17-.22-.11-.34.06-.12.21-.16.34-.11.01,0,1.65.84,4.01,1.21.14.02.23.15.21.28-.02.13-.14.23-.28.21h0"/>
            </g>
            <g id="id21e5d09c0ed8696e9acddb74">
              <path id="id224662b2fe0ead2bd3eddb68" class="cls-12" d="M76.11,123.65c-1.61-.22-2.5-1.73-2.55-1.81-.08-.12-.03-.27.09-.34.12-.06.27-.03.34.09,0,.02.99,1.67,2.65,1.58.13,0,.25.1.26.24,0,.14-.1.25-.24.26-.19,0-.37,0-.55-.02h0"/>
            </g>
            <g id="id7678fc831977a068f3a0a4c2">
              <path id="iddd3ac75f65a838fac6f5e1a8" class="cls-12" d="M74.79,125.1c-1.69-.23-2.61-1.52-2.67-1.58-.08-.11-.06-.26.05-.35.11-.08.27-.05.35.06.05.08,1.3,1.76,3.49,1.34.13-.03.26.07.29.19.02.13-.07.26-.2.29-.48.09-.92.1-1.33.04h0"/>
            </g>
            <g id="idab45fddf7354f973d052529a">
              <path id="idaf386df8f66fcf408c90f01b" class="cls-12" d="M74.93,127.13h0c-2.3-.38-3.41-2.57-3.45-2.66-.06-.12,0-.27.11-.34.12-.06.27,0,.34.11,0,.02,1.04,2.04,3.09,2.39.14.02.23.15.21.28-.02.13-.15.22-.29.21h-.01"/>
            </g>
            <g id="id2fd9026b9d6a980fb8a3bba7">
              <path id="id6f080fb04279d588fa68e7ec" class="cls-12" d="M73.44,128.04h0c-2.47-.44-3.13-2.28-3.15-2.36-.04-.13.02-.27.15-.31.13-.04.27.02.32.15.02.06.61,1.64,2.77,2.02.14.02.23.15.2.28-.02.13-.14.22-.28.21h0"/>
            </g>
          </g>
          <g id="idefbd5f4b271334344932c9e7">
            <g id="idbbbc979eff6d5e6802e68f5b">
              <path id="idc7ebeeba405ec5171449875f" class="cls-12" d="M47.64,132.83c-.07,0-.12-.04-.16-.1-.09-.11-.07-.26.05-.35,1.27-.96,1.98-3.61,1.99-3.64.03-.13.18-.2.31-.17s.21.17.17.3c-.03.12-.77,2.86-2.17,3.92-.05.04-.12.05-.18.04h0"/>
            </g>
            <g id="id3b41cee052f23bc5465b9cbe">
              <path id="ida6a228e63af555e4c9d01817" class="cls-12" d="M47.17,130.66c-.08,0-.15-.06-.2-.14-.05-.13,0-.27.13-.32,1.51-.67,1.6-1.84,1.61-1.88,0-.14.12-.24.26-.24s.24.12.24.26c0,.06-.09,1.52-1.91,2.32-.04.02-.09.02-.14.02h0"/>
            </g>
            <g id="idbbd2e061408be891ec5a01cb">
              <path id="idffc33f95532b26ee99e3143f" class="cls-12" d="M45.02,130.62c-.1,0-.18-.08-.21-.18-.03-.13.04-.27.17-.3,1.37-.36,2.71-2.73,2.72-2.75.07-.12.22-.16.34-.1.12.06.16.22.1.34-.05.09-1.47,2.57-3.03,2.98h-.1"/>
            </g>
            <g id="id4e2a818b262283276077cd75">
              <path id="id04386b47189bc42d99ef8227" class="cls-12" d="M43.69,129.44c-.09,0-.17-.08-.21-.17-.04-.13.03-.27.16-.3,1.8-.55,2.84-2.43,2.85-2.45.07-.12.22-.16.34-.1.12.06.16.22.1.34-.04.09-1.15,2.08-3.14,2.69-.03,0-.08,0-.11,0h0"/>
            </g>
            <g id="idda4260914ec2e5e52422ac1a">
              <path id="idaa0c2a41ce63ec40fe41e95d" class="cls-12" d="M44.61,127.44c-.1,0-.19-.08-.21-.18-.03-.13.06-.27.19-.29.43-.09.72-.27.87-.52.17-.28.1-.58.1-.58-.03-.13.04-.27.17-.3s.27.05.31.18c0,.02.13.5-.16.98-.22.37-.62.62-1.18.75h-.1"/>
            </g>
            <g id="ida2b1136eed8ce9da9a44e51b">
              <path id="ide3fe87eb711b6f9323e40fbc" class="cls-12" d="M42.18,126.94s-.08,0-.11-.02c-.13-.02-.22-.15-.2-.29.03-.13.15-.22.3-.19,1.39.28,2.54-1.6,2.55-1.62.08-.12.23-.15.34-.09.12.06.15.23.09.34-.05.09-1.29,2.11-2.97,1.88h0"/>
            </g>
          </g>
          <g id="idbfb887055b0e27f40f9401e7">
            <path id="id93df55e2f3eb02b42c069eb2" class="cls-3" d="M56.5,108.04s4.77,14.15,13.57,18.43c3.88-4.16,5.35-7.4,5.35-7.4,0,0-9.12-3.06-13.43-12.19-2.1.47-5.5,1.13-5.5,1.13h0"/>
          </g>
          <g id="id4a39f5b6a1f4013e51aebfa2">
            <path id="idd68f6efcc34bf48916fb4fb4" class="cls-3" d="M53.59,108.02s2.49,13.07-3.48,21.26c-2.37-1.21-6.18-4.93-6.18-4.93,0,0,5.05-7.95,5.89-16.73,1.76.12,3.76.4,3.76.4h0"/>
          </g>
          <g id="id848bb6d9a6ce41b2d58c2be5">
            <path id="idac4be650d8080dce6e597a75" class="cls-12" d="M43.93,102.72c5.83.17,15.43,1.37,27.79-7.58.66,2.51,1,7.15-2.19,10.35-3.28,3.29-16.35,7.49-25.43,1.52-1.15-.92-.18-4.3-.18-4.3h0"/>
          </g>
        </g>
        <g id="ide77cd118671aaa8a78f1e460">
          <g id="id9a949e65a720ffbe687402f6">
            <g id="idaa08db0771e2e621b3e9b0ad">
              <path id="idfefafb23ab622ef2bcce0689" class="cls-21" d="M.15,84.57c10.63-9.52,30.59-14.93,37.26-14.5,9.87-17.39,34.83-27.29,52.62-29.91,9.88-15.59,30.17-24.15,32.93-25.05-26.5-9.65-71.33,10.02-71.33,10.02C51.63,25.13.83,61.69.13,84.58h0"/>
            </g>
            <g id="id3ab1bf71c7fed48f18ccdf4a">
              <path id="id21b763ad05cd5b3f11c535c4" class="cls-2" d="M37.42,70.07c9.87-17.39,34.83-27.29,52.62-29.91C72.74,11.6,40.29,8.18,40.29,8.18c0,0-18.4,30.43-2.89,61.89h.01"/>
            </g>
          </g>
          <g id="id67b182e0e5462b59e0547d3c">
            <g id="id2d17960a969e87b3567a328d">
              <path id="idb84799e307108755023b3ffb" class="cls-6" d="M88.69,96.46c.13,0,.26-.02.39-.08.46-.22.67-.79.44-1.26-1.75-3.65-49.09-86.25-51.04-89.96-.25-.46-.81-.63-1.27-.4-.46.24-.63.8-.4,1.27.48.91,49.28,86.27,51.02,89.89.16.34.5.53.85.52h0"/>
            </g>
            <g id="id3fb82c1153819bab327e2b8f">
              <path id="id55e0f8caed43b6980b8edf07" class="cls-4" d="M90.97,111.01c1.14-.21,2.15-.8,2.97-1.74,4.18-4.86-1.7-12.53-4.21-15.8-.63-.82-1.8-.98-2.63-.35-.82.62-.98,1.8-.35,2.62,4.33,5.65,5.8,9.37,4.34,11.06-.31.35-.62.51-1.05.51-1.08.01-2.68-.94-3.97-2.37-.69-.77-1.87-.83-2.65-.14-.77.69-.83,1.89-.14,2.65,2.07,2.29,4.61,3.63,6.81,3.61.31,0,.6-.03.9-.08h0"/>
            </g>
            <g id="id40f18829251235d9f222376b">
              <g id="id1451c0b8266130928d537e50">
                <path id="idc047566e87680e65e10af80f" class="cls-19" d="M88.2,100.08c-.37-.15-1.12-.97-1.03-1.99.14-1.51,1.06-1.98,1.39-1.63.37.4-.06,1.59-.06,1.59,0,0,.41.19.55,1.21.14,1.03-.85.83-.85.83h0"/>
              </g>
              <g id="id4526753bf0e2b0c57e2cbdbf">
                <path id="id867700ed5e5bfc38372f34f4" class="cls-19" d="M89.3,96.6c.18-1.43,1.75-3.03,2.39-2.62.64.41.29,1.26.29,1.26,0,0,.79-.28,1.09.36.34.74-.28,1.25-.28,1.25,0,0,.8-.54,1.22.17.28.46-.1,1.02-.1,1.02,0,0,.66-.27.76.68.1.95-2.44,2.04-2.81,1.82-.63-.37.32-1.22.32-1.22,0,0-1.29,1.07-1.78.47-.48-.6.75-1.51.75-1.51,0,0-1.1.65-1.42.07-.32-.56.41-1.23.41-1.23,0,0-.96.45-.84-.52h0"/>
              </g>
            </g>
          </g>
          <g id="id30c3c45fb39346179b6c7464">
            <g id="idd9501c714c6da85f19122fb7">
              <path id="id37b26a5f92b8304649299b19" class="cls-18" d="M122.98,15.11c-11.18-10.62-49.68-23.91-83.87-7.15C6.71,23.83-1.22,64.85.14,84.57c4.99-12.73,16.05-22.08,20.91-24.96,16.01-16.32,39.16-29.07,62.09-33.47,22.26-14.98,39.83-11.02,39.83-11.02h0"/>
            </g>
            <g id="id8dd7fb6d860c4d4947523116">
              <path id="id97a77d71df9cdedd7e3b7032" class="cls-16" d="M39.1,7.96c-20.65,11.25-22.17,47.16-18.04,51.63,16.01-16.32,39.16-29.07,62.09-33.47C77.81,17.33,55.36.85,39.1,7.94h0"/>
            </g>
          </g>
        </g>
        <g id="idaad1711865d0cf4d6ac527a1">
          <g id="idaeb7b9bdb583443bc11c4349">
            <path id="id56484135988d53d910868310" class="cls-6" d="M127.32,17.48c.32.44.95.54,1.39.22h0c.44-.32.54-.95.22-1.39l-1.07-1.48c-.32-.44-.95-.54-1.39-.22h0c-.44.32-.54.95-.22,1.39l1.07,1.48h0Z"/>
          </g>
          <g id="ide0dff8023582270b91fd140b">
            <path id="ide1449e6f2e93c22cc975187e" class="cls-6" d="M87.6,26.18c.32.44.95.54,1.39.22h0c.44-.32.54-.95.22-1.39l-1.08-1.48c-.32-.44-.95-.54-1.39-.22h0c-.44.33-.54.95-.22,1.39l1.07,1.48h.01"/>
          </g>
          <g id="id436d31483e81e1d80cd55f47">
            <path id="id4054ac04b46bade1e22439ea" class="cls-6" d="M24.1,56.16c.32.44.95.54,1.39.22h0c.44-.33.54-.94.22-1.39l-1.07-1.47c-.33-.44-.94-.54-1.39-.22h0c-.44.33-.54.94-.22,1.39l1.07,1.47h0"/>
          </g>
          <g id="id4b9e17669931942a1c4f7a62">
            <path id="idf6becd65c9f96322a37d841e" class="cls-6" d="M2.77,79.71c.32.44.95.54,1.39.22h0c.44-.32.54-.94.22-1.39l-1.08-1.47c-.32-.44-.95-.54-1.39-.22h0c-.44.33-.54.94-.22,1.39l1.08,1.47h0"/>
          </g>
          <g id="idb45e27f2a560b01856cb49ca">
            <path id="idcade067c3b10ff8f182b9bbf" class="cls-6" d="M93.57,40.12c.32.44.95.54,1.39.22h0c.44-.32.54-.95.22-1.39l-1.08-1.48c-.32-.44-.95-.54-1.39-.22h0c-.44.32-.54.95-.22,1.39l1.08,1.48h0Z"/>
          </g>
        </g>
        <g id="id409345c682d4500aecec36a2">
          <g id="id5d138634b77aa5789d1d5f7d">
            <path id="id4f1985236d9bf40f5ab379d3" class="cls-5" d="M74.62,65.27c3.66,15.59-4.35,29.82-18.89,34.95-14.54,5.13-30.08-.79-37.02-15.23-7.3-15.17,1.28-34.32,19.76-33.71,11.38-10.97,31.83-4.36,36.14,14h0"/>
          </g>
          <g id="id5f96afbe9abad132c1458b12">
            <path id="idcbb15f41015ca5e54d954530" class="cls-19" d="M31.31,90.01c4.72,12.79,17.86,17.61,30.18,13.07,12.32-4.55,19.15-16.76,14.43-29.55s-18.38-19-30.69-14.45c-12.32,4.55-18.63,18.16-13.91,30.94h0"/>
          </g>
          <g id="idcea782c26f310b5ccb35aafa">
            <g id="idd6afe01e364b9cb9c9e3ff16">
              <path id="ide7413391c4de0834f572a99f" class="cls-19" d="M32.16,89.81s-1.26-2.48-4.56-1.78c-3.48.75-3.32,5.59-.64,7.6,2.68,2.01,6.43.78,6.89-1.66l-1.7-4.17h0"/>
            </g>
            <g id="id6e1516ee096683e59ababeba">
              <path id="idbc9cec4e5b52aa455292b84d" class="cls-15" d="M27.33,89.39c2.05-1.1,5.08,2.16,2.78,5.13.36-3.12-1.09-3.68-2.23-1.86-.28-.89.09-1.63,1.43-1.96-.49-1.13-1.99-1.29-1.99-1.29h0"/>
            </g>
          </g>
          <g id="id661eae384a4608b51c5ed0e0">
            <path id="ide749d4f640d7e7a1a7cb42fe" class="cls-7" d="M55.32,85.25c.75.21.5-1.49,1.89-1.94,1.41-.46,2.11,1.12,2.61.37.41-.61-.92-2.39-3.21-1.56-1.91.68-1.99,2.92-1.28,3.12h0"/>
          </g>
          <g id="id837f22787602492275aff914">
            <g id="id94b379077d47fc24dcaa7830">
              <g id="id061cc2a07077dae3831f0e0c0">
                <path id="id130c48974644efde3dcb0f52" class="cls-17" d="M52.94,94.9c-.8-1.51,3.29-2.95,7.14-5s6.41-4.43,7.21-2.92,1.11,6.62-3.55,9.28c-4.8,2.75-10,.15-10.8-1.36"/>
                <path id="idb6223fec137d1fdfb2271be5" class="cls-10" d="M59.21,92.64c.52.43,1.17,1.03,1.2,1.46.04.48-.32.96-.67,1.14-.17.09-.34.11-.45.02-.22-.17-.74-1.22-1.09-1.93h0c-.19.18-.35.39-.49.6h0c-.89,2.56.96,4.17,1.96,3.5l.14-.16c.01-.07-.03-.05-.05.07.85-.08,1.91-.28,3.07-.9.32-.17.64-.35.96-.54h0c.09-.64,0-1.3-.33-1.9-.8-1.5-2.68-2.08-4.27-1.34h0"/>
                <path id="id99b13fa3ec1624a9983dddee" class="cls-14" d="M60.61,96.34c-.37-.71.15-1.72,1.17-2.26s2.15-.41,2.53.29-.15,1.72-1.17,2.26-2.15.41-2.53-.29"/>
                <path id="idf2d49a8eabd509979f2ca954" class="cls-13" d="M64.91,87.06c-1.23.66-2.86,1.79-4.83,2.84-1.66.89-3.37,1.66-4.71,2.37-.59.31-1.11.62-1.52.91h0l.91.72,11-5.91-.57-1.07h0c-.09.04-.17.09-.26.14h0M58.42,97.44h0c1.58.13,3.35-.12,5.07-1.04.08-.04.17-.09.25-.14,1.61-.92,2.62-2.13,3.23-3.38-2.57,1.37-5.99,3.19-8.55,4.56"/>
                <path id="id232309f2d6663e49b6c63bad" class="cls-8" d="M52.94,94.9c-.8-1.51,3.29-2.95,7.14-5s6.41-4.43,7.21-2.92,1.11,6.62-3.55,9.28c-4.8,2.75-10,.15-10.8-1.36"/>
              </g>
            </g>
          </g>
          <g id="id080f3e73a17f1cf5384d2ab4">
            <g id="ide3e6b287333abb03189aaace">
              <path id="ide065e58e9e8a69568f66c614" class="cls-11" d="M47.64,86.25c.46,1.84-.65,3.72-2.49,4.18-1.84.46-3.72-.65-4.18-2.49-.46-1.84.65-3.72,2.49-4.18,1.84-.46,3.72.65,4.18,2.49h0Z"/>
            </g>
            <g id="idbad2264147920e87e4ebd9b8">
              <path id="id0ced191eb092d18fdd904010" class="cls-13" d="M43.92,86.31c.07.56-.32,1.1-.86,1.2-.55.09-1.05-.28-1.11-.84-.08-.56.31-1.1.86-1.2s1.05.28,1.11.84h0"/>
            </g>
            <g id="id3a1e998bfae9c82a43e1cae7">
              <path id="idb7f29146089f82a30013f5c2" class="cls-13" d="M46.68,88c.03.28-.17.56-.44.62s-.54-.14-.57-.43c-.03-.28.17-.56.44-.6.28-.06.53.14.57.43h0"/>
            </g>
          </g>
          <g id="id91a77dda1e8af177d5e9c9f4">
            <g id="id451157891b2b0ab0560caeb1">
              <path id="id9c2d19aaa92a02f3b9bc2a0d" class="cls-11" d="M70.14,75c1.79.64,2.72,2.61,2.08,4.4s-2.61,2.72-4.4,2.08-2.72-2.61-2.08-4.4,2.61-2.72,4.4-2.08h0Z"/>
            </g>
            <g id="id95a0b980af407a92cecba2d1">
              <path id="ida1216e14227ebc0fcb85b161" class="cls-13" d="M68.59,77.44c.06.56-.32,1.1-.86,1.2-.55.09-1.05-.28-1.11-.84-.08-.56.31-1.1.86-1.2s1.05.28,1.11.84h0Z"/>
            </g>
            <g id="id2f5c5e0395cccae1304ab641">
              <path id="ida74bcfc3ea5a0184131c5f3f" class="cls-13" d="M71.35,79.13c.03.28-.17.56-.44.62-.28.06-.54-.14-.57-.43-.03-.28.17-.56.44-.6.28-.06.53.14.57.43h0"/>
            </g>
          </g>
          <g id="id9a0cba2d6cf58b0e866ef39d">
            <path id="idd6f74771203c25d58e013e6f" class="cls-7" d="M47.55,94.13c.34,1.06-.74,2.37-2.42,2.91-1.68.54-3.32.12-3.67-.94-.35-1.06.74-2.37,2.42-2.91,1.68-.54,3.32-.12,3.67.94h0"/>
          </g>
          <g id="id1d52b77e4724cad713d9bd4f">
            <path id="id165ca8748e8d39695e10360a" class="cls-7" d="M75.87,83.83c.39,1.05-.65,2.39-2.32,3s-3.32.26-3.71-.8c-.39-1.05.65-2.39,2.32-3,1.67-.61,3.32-.26,3.71.8h0Z"/>
          </g>
          <g id="id020a04b96c99072b1b6134b4">
            <path id="idd9a8d30c7269aaed35014998" class="cls-11" d="M41.72,80.35c2.34-1.73,3.97.94,2.24,1.6-1.86.71-3.16,1.97-3.46,1.89-.66-.2-.09-2.51,1.23-3.48h0"/>
          </g>
          <g id="idfae8ef0a724bc0f0a3d94ca8">
            <path id="idebb58a6008074766bc3a65c4" class="cls-11" d="M67.08,71.24c-2.9.15-2.46,3.25-.71,2.66,1.89-.64,3.69-.49,3.86-.75.39-.57-1.53-2-3.17-1.91h.01"/>
          </g>
          <g id="ida55cd329fc1a9ed041e5ce1a">
            <path id="id1ef2e8d57bbaf5ad9c949393" class="cls-5" d="M75.28,70.64c-1,2.61-14.22-2.42-24.45-8.93-4.87,12.54-16.58,23.96-20.54,25.58-15.38-29.43,33.74-53.96,44.99-16.67h0"/>
          </g>
          <g id="id34fa4f293693edad315b31fb">
            <g id="idf428d2c6cf8cd1abf47e02d7">
              <path id="iddeebacc5d72842f180781d1a" class="cls-11" d="M47.38,55.79s11.71,7.18,24.01,3.4c-8.08.24-24.01-3.4-24.01-3.4h0"/>
            </g>
            <g id="id5028cc4562896e9b6d553b7a">
              <path id="idef6cbc2d3b2a8738850adaa5" class="cls-11" d="M45.97,52.12s12.02,2.23,19.61-1.33c-9.21.46-19.62,1.33-19.62,1.33h0"/>
            </g>
          </g>
          <g id="id52b9262d8afb6fed45f6fb0c">
            <g id="idfb8c40d0d97153029ad4b2fb">
              <path id="idff2fe7eca3966f1ec55bfc10" class="cls-11" d="M44.67,56.77s-4.47,12.98-16.36,17.9c6.38-4.96,16.36-17.9,16.36-17.9h0"/>
            </g>
            <g id="id9fb8a16f37cb79b23acf4317">
              <path id="id3cd0e6e1382825591f5a8336" class="cls-11" d="M43.42,53.04s-7.86,9.37-15.98,11.46c7.4-5.51,15.98-11.46,15.98-11.46h0"/>
            </g>
          </g>
        </g>
      </g>
    </g>
  </g>
</svg>