<?xml version="1.0" encoding="UTF-8"?>
<svg id="Layer_2" data-name="Layer 2" xmlns="http://www.w3.org/2000/svg" viewBox="0 0 93.61 29.35">
  <defs>
    <style>
      .cls-1 {
        fill: #fff;
      }
    </style>
  </defs>
  <g id="Layer_1-2" data-name="Layer 1">
    <g id="id1ea8a4b9c5174c08126a1bac">
      <g id="idb9a3f69f0839950ebc789b2e">
        <g id="idc8f2a6d1f3bbc034589b690d">
          <path id="id78aa0b98a0aea50fb1ef8581" class="cls-1" d="M0,13.85v1.66C0,23.15,6.2,29.35,13.85,29.35h65.92c7.65,0,13.85-6.2,13.85-13.85v-1.66c0-7.65-6.2-13.85-13.85-13.85H13.85C6.2,0,0,6.2,0,13.85h0"/>
        </g>
        <g id="idc0a4d8d9b4c1752464e4e8ff">
          <g id="id05fa0bc78300f3dd91ac56ce">
            <path id="id7fdff28806e48830e69a84b8" d="M12.14,16.41c-.29-.6-.44-1.21-.44-1.84,0-.97.33-1.76,1-2.4.65-.6,1.44-.9,2.4-.9s1.81.33,2.46.99c.62.62.92,1.38.92,2.3,0,.65-.15,1.26-.44,1.84h.62v1.93h-2.16c-.62,0-1.08-.09-1.39-.26h-.09c-.31.18-.77.26-1.4.26h-6.06c-.81,0-1.5-.29-2.06-.89-.53-.55-.79-1.23-.79-2.01v-1.96l1.16-.94h1.14v2.91c0,.25.08.46.23.65.18.22.4.33.69.33h4.21M15.11,8.16c.32,0,.59.11.81.33s.33.49.33.83-.11.61-.33.83-.5.33-.82.33-.61-.11-.84-.34-.34-.5-.34-.81.11-.58.34-.81.5-.34.84-.34h0M15.09,16.39c.74-.16,1.11-.69,1.11-1.6,0-.4-.08-.75-.24-1.05-.23-.35-.52-.52-.86-.52-.32,0-.59.14-.79.44-.22.3-.33.68-.33,1.14,0,.92.38,1.45,1.12,1.6h.01"/>
          </g>
          <g id="id4fbacbcfaa9357292f8dcefd">
            <path id="id78ba227a939f9bbee9981080" d="M23.57,11.46v5.03c0,.44-.15.83-.44,1.18-.38.45-.85.67-1.44.67h-3.12v-1.93h2.47c.05,0,.1-.01.14-.04.05-.03.07-.09.07-.16v-4.74h2.32M19.78,19.02c.32,0,.59.12.82.35s.35.51.35.84-.12.59-.35.82c-.23.23-.51.34-.81.34s-.61-.12-.83-.35c-.23-.23-.33-.51-.33-.81s.12-.61.33-.84c.22-.23.5-.34.83-.34h0M22.46,19.03c.32,0,.59.12.82.35.23.23.34.51.34.84s-.12.59-.35.82c-.23.23-.51.34-.81.34s-.61-.12-.83-.35c-.22-.23-.33-.51-.33-.81s.12-.61.33-.84c.22-.23.5-.34.83-.34h0"/>
          </g>
          <g id="id8b2df8d3d99cacba189a6249">
            <path id="idc632dca81f959d7bf980319d" d="M30.08,11.46v4.95h.75v1.93h-.77c-.12,1.14-.61,2.05-1.5,2.72-.75.55-1.63.81-2.63.81-.12,0-.29,0-.52-.01l-.94-1.19v-.8s.08.02.16.03c.25.05.48.08.69.08.83-.02,1.44-.23,1.85-.62.4-.41.61-1.04.61-1.87v-6.04h2.32-.01"/>
          </g>
          <g id="idacd87d3462649ccd0200119b">
            <path id="id8b452a830f323f0942931ac8" d="M32.72,11.71c.94-.29,1.82-.44,2.62-.44,1.19,0,2.19.37,3.01,1.12.76.7,1.14,1.56,1.14,2.56v1.32s0,.08.01.14h.46v1.93h-.3l-.55-.69h-.05c-.37.46-.85.69-1.45.69h-6.89v-1.93h6.23c.14,0,.21-.07.21-.21v-.99c0-.56-.23-1.04-.68-1.42-.45-.38-1.01-.56-1.69-.56-.55,0-1.24.1-2.06.31v-1.85.02M35.47,8.15c.32,0,.59.11.82.33.22.22.33.49.33.83s-.12.61-.33.83c-.23.22-.49.33-.81.33s-.61-.11-.84-.34c-.23-.23-.34-.5-.34-.81s.12-.58.35-.81c.23-.23.51-.34.84-.34h0"/>
          </g>
          <g id="id107db6b7b53ff31ad1c67ae1">
            <path id="id64c1007a097bd44ac76d5f13" d="M44.85,7.63v8.86c0,.44-.14.83-.41,1.18-.38.45-.86.67-1.45.67h-3.13v-1.93h2.47c.06,0,.1-.01.15-.04.05-.03.07-.09.07-.16V7.64h2.31"/>
          </g>
          <g id="ida37636d43b92723bc9edaace">
            <path id="id72b2d1ddc67dae77960fe87c" d="M49.22,7.63v10.15l-1.16.94h-1.14V7.63h2.31"/>
          </g>
          <g id="id68b1d5fd54d3161414384dee">
            <path id="id600a82867d4a2ea21a713dd6" d="M64.34,7.63v8.79h.76v1.93h-.8c-.1,1.1-.55,1.96-1.33,2.61-.82.65-1.86.97-3.12.97h-1.31c-1.47,0-2.63-.43-3.46-1.27-.69-.73-1.03-1.68-1.03-2.87v-2.3l1.16-.92h1.14v2.93c0,.92.22,1.57.64,1.94s1.16.56,2.2.56,1.76-.18,2.18-.54c.44-.39.66-1.03.66-1.96V7.63h2.31"/>
          </g>
          <g id="id3a7ddc9aa43c1a23f58756b3">
            <path id="id4bdc21e6c6b52b538f0d76f7" d="M69.98,13.29c1.27-1.36,2.76-2.03,4.48-2.03,1.23,0,2.27.37,3.1,1.11.77.69,1.15,1.56,1.15,2.62v.84c0,.11,0,.31.01.59h.46v1.93h-.29l-.56-.69h-.03c-.38.46-.86.69-1.45.69h-11.89v-1.93h2.69v-4.95h2.31v1.85-.02M76.41,15.23c0-.65-.27-1.16-.77-1.54-.41-.31-.9-.46-1.45-.46-1.2,0-2.3.59-3.29,1.76-.06.1-.16.25-.31.46-.28.4-.48.72-.61.94h6.23c.15,0,.23-.07.23-.21v-.96h-.02"/>
          </g>
          <g id="id34fc77205910207db21c4f02">
            <path id="id7f230d15fe6669e7b89ed0b6" d="M81.81,16.41c-.11-.29-.2-.55-.26-.79-.09-.33-.14-.68-.14-1.05,0-.73.19-1.36.59-1.9.68-.92,1.65-1.4,2.9-1.4.9,0,1.63.24,2.21.74.62.53.94,1.22.94,2.06v2.41c0,.44-.14.83-.41,1.18-.38.45-.85.67-1.44.67h-7.1v-1.93h2.71-.01M85.74,14.09c0-.31-.11-.55-.36-.71-.16-.1-.32-.16-.49-.16-.48,0-.84.22-1.05.67-.11.25-.16.55-.16.9,0,.67.21,1.14.61,1.42.24.14.55.21.92.21h.31c.14,0,.21-.07.21-.21v-2.11h.01M84.91,8.16c.32,0,.59.11.81.33.23.22.33.49.33.83s-.11.59-.33.81c-.22.23-.49.34-.81.34s-.61-.11-.84-.34c-.23-.23-.34-.5-.34-.81s.11-.58.35-.81c.23-.23.51-.34.84-.34h0"/>
          </g>
        </g>
      </g>
    </g>
  </g>
</svg>