<?xml version="1.0" encoding="UTF-8"?>
<svg id="Layer_2" data-name="Layer 2" xmlns="http://www.w3.org/2000/svg" viewBox="0 0 101.08 179.8">
  <defs>
    <style>
      .cls-1 {
        fill: #ee3b24;
      }

      .cls-2 {
        fill: #f5b92a;
      }

      .cls-3 {
        fill: #c12228;
      }

      .cls-4 {
        fill: #008fa6;
      }

      .cls-5 {
        fill: #3b332f;
      }

      .cls-6 {
        fill: #f89e1b;
      }

      .cls-7 {
        fill: #fdedea;
      }

      .cls-8 {
        fill: #f27067;
      }

      .cls-9 {
        fill: none;
        stroke: #000;
        stroke-linecap: round;
        stroke-linejoin: round;
      }

      .cls-10 {
        fill: #864399;
      }

      .cls-11 {
        fill: #722b86;
      }

      .cls-12 {
        fill: #502a2a;
      }

      .cls-13 {
        fill: #1a1715;
      }

      .cls-14 {
        fill: #ffd300;
      }

      .cls-15 {
        fill: #007085;
      }

      .cls-16 {
        fill: #fff;
      }

      .cls-17 {
        fill: #4dbeaa;
      }

      .cls-18 {
        fill: #ef6464;
      }

      .cls-19 {
        fill: #d48565;
      }

      .cls-20 {
        fill: #bd5454;
      }

      .cls-21 {
        fill: #f37920;
      }

      .cls-22 {
        fill: #eead86;
      }

      .cls-23 {
        fill: #bdbf31;
      }

      .cls-24 {
        fill: #fbc6a4;
      }

      .cls-25 {
        fill: #844f9f;
      }

      .cls-26 {
        fill: #733a8c;
      }

      .cls-27 {
        fill: #f89a1c;
      }
    </style>
  </defs>
  <g id="Layer_1-2" data-name="Layer 1">
    <g id="id5789106f4d75dfc54c86345a">
      <g id="id7808a1ef3ea498c1776434a3">
        <path id="idc738c41bc586d4c71fda12dd" class="cls-23" d="M18.06,174.51c0,4.26,13.02,5.29,29.08,5.29s29.08-1.03,29.08-5.29-13.02-5.68-29.08-5.68-29.07,1.41-29.07,5.68h0"/>
      </g>
      <g id="id04fc97995bf257acc693a066">
        <g id="idcbacf144e4e8881548a5ae98">
          <path id="id67bcd7d87bfc82c82c3bcbb7" class="cls-24" d="M28.18,103.26c-2.25.8-12.49,6.74-18.31,9.33-3.28-.56-5.67.64-5.76,1.28-.13.89,2.14-.08,2.61.11-.06.06-2.85,1.57-3.26,1.85-.96.64-.64,1.55.35,1.34.85-.19,2.63-.91,2.72-.95-.06.08-2.01,1.6-2.35,1.86-1.02.78-.37,2.06,1.14,1.12,1.01-.62,2.36-1.57,2.31-1.56,0,.08-1.08,1.38-1.43,2.09-.58,1.16.44,1.68,1.35.6.75-.89,3.09-3.2,3.09-3.2,0,0,.6,2.24,1.41,1.97,1.02-.33-.15-3.54-.15-3.54,0,0,11.06-5.61,17.27-8.45-.58-.91-.92-2.37-.98-3.85h0"/>
        </g>
        <g id="id6d3ffc87574c0f1e08e22f6c">
          <path id="id19691116f26024ec6d0a04dd" class="cls-24" d="M85.87,96.87c-5.82,4.81-16.46,7.56-23.45,5.08-.38,1.69-1.13,3.37-1.13,3.37,0,0,12.71,5.59,26.97-6.43l-2.38-2.02h0"/>
        </g>
        <g id="idf35ede396e00d3467f651141">
          <g id="id527aebf1540ab5a4bf864b89">
            <path id="idfeec88127e178ea4d4888557" class="cls-24" d="M54.75,136.92s1.9,28.7,2.66,31.99c-1.69,1.2-3.83-1.19-3.83-1.19l-3.13-30.31,4.29-.5h0"/>
          </g>
          <g id="id137a62a65db242bf2290fc73">
            <g id="id32d397694a5e649e77b32394">
              <g id="idd1cfe42a8e1326aef3f7d1ba">
                <path id="ide8812f13e701db698d834b22" class="cls-16" d="M54.72,170.71c-.67.75-.73,2.6.29,3.01,2.01.51,8.34.68,10.26.18,1.97-.52-.03-3.88-.03-3.88l-10.52.68h0"/>
              </g>
              <g id="id0c0252aac42594c35112718b">
                <path id="id75b1f68e587ef5dc7a4a6ba7" class="cls-25" d="M53.58,167.73c-.18.91-.48,3.52.66,4.11,2.11.11,7.57.68,10.46.33,3.01-.97-.27-3.35-2.04-3.71-1.78-.35-5.47-1.84-5.47-1.84,0,0-1.55.78-3.62,1.1h0"/>
              </g>
            </g>
            <g id="idc37e144cab638782105ad526">
              <path id="idb3fc112192c05f75e0b54662" class="cls-17" d="M59.8,167.16c-.95-.04-2.07.68-2.36,1.4-.28.72.73.62,1.09.5.36-.12.94-.42,2.12-.86s-.09-1-.84-1.03h0"/>
            </g>
            <g id="id64a05d99a37238a4cc1884e0">
              <path id="id21b5d7c553138c0cdb1d848b" class="cls-17" d="M62.36,167.94c-.95-.04-2.07.68-2.36,1.4-.28.72.56.57.93.46.37-.12,1.1-.38,2.27-.82,1.17-.44-.09-1-.85-1.03h0"/>
            </g>
          </g>
        </g>
        <g id="id662d5f15bb1d400e012f722b">
          <g id="idf2f1467a0fffd0b2481eb5ca">
            <path id="id11256b3958c8a3190aae0abe" class="cls-24" d="M32.92,134.24s-9.65,9.46-24.51,2.17c.27-2.05,1.42-3.36,1.42-3.36,0,0,11.66,6.12,19.37-1.12.81,1.12,3.72,2.29,3.72,2.29h0"/>
          </g>
          <g id="id0dac44b4edc7c649233e3536">
            <g id="ida725531d8f46a587498e67ca">
              <g id="id6c5218e9e4b9f8fe42058c8c">
                <path id="idd28a1870cad7f6b0265f639a" class="cls-16" d="M8.57,131.87c-.1-1-1.46-1.61-2.07-1.47-2.07.5-5.57,9.57-5.57,11.69,0,1.38,2.29,1.33,2.29,1.33l5.36-11.57h0"/>
              </g>
              <g id="id9c0db03bf5ee70a622f3d812">
                <path id="idb77e276136868b4cea6ff6cb" class="cls-25" d="M11.69,133.91c-.55-.74-2.45-3.2-3.65-2.76-1.1.4-5.18,8.32-5.48,10.95-.37,3.14,2.19.08,3.66-.99,1.48-1.05,4.13-3.99,4.13-3.99,0,0-.32-1.57,1.37-3.22h-.02"/>
              </g>
            </g>
            <g id="idef2828a06cb8107ff6dbd8e3">
              <path id="id0cf953593b9bff92d3b29993" class="cls-17" d="M9.1,139.38c.68-.66.92-1.98.58-2.68s-.95.11-1.1.47c-.15.34-.33.97-.8,2.13-.48,1.16.79.61,1.33.08h0"/>
            </g>
            <g id="id668311d0ac2de3d53ce2ba38">
              <path id="idd7c5b096959e404f57fcbae5" class="cls-17" d="M6.68,141.5c.68-.66.92-1.98.58-2.68s-.8.03-.96.37c-.15.34-.47,1.06-.94,2.22-.48,1.16.79.61,1.33.08h0"/>
            </g>
          </g>
        </g>
        <g id="id1198ac27ccfdd602f1367831">
          <g id="id51019582b105583d4d01e0a6">
            <path id="id695539b632fd44f47066ef15" class="cls-24" d="M34.08,98.61s3-.81,4.92-1.6c-.02-2.04-.65-4.26-.65-4.26l4.27-.76s.63,3.28.73,4.61c2.76.41,5.27.4,5.27.4,0,0,3.31,8.56-6.14,9.17-2.48.17-8.43-3.66-8.4-7.55h0"/>
          </g>
          <g id="idf13d535bd8bc7d8c4a6dedef">
            <path id="id972afb0cee023279be72020a" class="cls-22" d="M39.42,95.01l.14,2.56s1.56-1.93,3.52-.37c-.45-2.58-.61-3.24-.61-3.24l-3.05,1.04h0"/>
          </g>
        </g>
        <g id="id59f20563bbb746447586921a">
          <g id="iddcf8ff8dfe8a5d30f9bc09fe">
            <path id="id2afcfdf7694ea660a4023347" class="cls-21" d="M47.55,96.77c.71,7.35-11.41,6.19-13.06,1.96-.64,0-9.46,3.97-11.66,5.43.85,3.67,2.8,6.23,3.67,7.44.55.06,2.83-.87,3.79-1.1.25.78.69,9.71.22,10.57,0,0,10.7,1.14,25.69-.14,0,0,.94-9.08.57-12.79.11.04,3.08.46,3.61.57,1.58-1.39,1.82-6.99,2.53-7.32-7.72-4.66-11.96-3.86-15.36-4.66h0"/>
          </g>
          <g id="id55519c8901adb3eabfbe248c">
            <path id="idc558ec986cd522101733d76d" class="cls-3" d="M61.53,109.63s2.26-4.88,2.95-8.21c-.83-.31-2.01-.61-2.01-.61,0,0-1.36,4.81-3.11,8.15,1.25.43,2.16.67,2.16.67h0"/>
          </g>
          <g id="idf25f653fea7fce3caf48e0ef">
            <path id="id1f662f0330f647031bbea46a" class="cls-3" d="M46.32,96.64c.37,1.28.52,3.6-3.23,4.32-3.62.7-6.07-1.74-6.87-3.11-1.02.41-2.26.69-2.26.69,0,0,3.58,5.47,9.94,4.36,5.97-1.03,4.93-6.49,4.93-6.49l-2.51.21h0"/>
          </g>
        </g>
        <g id="idecd42dbd04dd50fc1e26b671">
          <path id="id0b8c0597990960a67d400320" class="cls-3" d="M20.79,105.12s1.86,4.94,4.24,7.69c.92-.34,2.2-1.25,2.2-1.25-1.16-1.16-2.83-3.52-4.2-7.76-1.09.56-2.24,1.33-2.24,1.33h0"/>
        </g>
        <g id="idad491576d1127b897ff31ffc">
          <g id="id44616698c18d864dd4cec9ed">
            <g id="idaf5e1768d77a7a1ca3273033">
              <path id="id5af2d378665e4267c0975a20" class="cls-7" d="M37.15,111.11c-.13,0-.25-.08-.26-.2-.08-.6-.11-.98.06-1.26.18-.3.51-.39,1.06-.46.86-.11.88-.25.82-.79-.08-.64-.27-.67-.88-.59l-3.58.44c-.61.08-.8.14-.72.78.06.55.12.68.99.57.55-.06.9-.05,1.14.19.22.23.29.61.35,1.2,0,.13-.08.25-.21.26-.13,0-.25-.08-.26-.2-.05-.44-.11-.81-.23-.93-.09-.09-.3-.1-.74-.06-.55.06-.92,0-1.17-.22-.25-.23-.31-.43-.35-.76-.06-.56,0-1.17,1.13-1.31l3.58-.44c1.14-.14,1.35.44,1.42,1.01.04.34.03.55-.15.82-.19.28-.53.43-1.09.49-.44.06-.64.12-.71.23-.09.14-.05.51,0,.96,0,.13-.08.25-.21.26h.03"/>
            </g>
            <g id="id66b30e02d01dac11dc13a9a4">
              <path id="id42f460017c9b6b4916206375" class="cls-10" d="M38.43,107.78l-4.38.53-3.88-7.93,4.02-2.14,4.25,9.54h0"/>
            </g>
          </g>
          <g id="ide61580849b427d7db6294ce5">
            <g id="id1a507a21ea58cefeb7b4533e">
              <path id="idf6f90c0c895f202c40fd2f4d" class="cls-7" d="M50.69,110.04c.13,0,.22-.13.21-.26-.08-.6-.13-.97-.35-1.21-.24-.24-.59-.25-1.14-.19-.86.11-.92-.03-.99-.58-.08-.64.1-.71.72-.78l3.58-.44c.61-.08.81-.05.88.59.07.55.04.7-.82.79-.55.06-.89.16-1.06.46-.17.28-.13.66-.06,1.26,0,.13.13.22.26.21.13,0,.22-.13.21-.26-.05-.44-.08-.81,0-.96.07-.11.26-.17.7-.23.55-.06.9-.22,1.09-.49.19-.29.2-.49.16-.83-.07-.56-.28-1.15-1.42-1.01l-3.58.44c-1.14.14-1.19.75-1.13,1.31.04.34.1.54.35.76.24.22.62.28,1.17.22.44-.06.65-.05.74.05.12.12.18.49.23.93,0,.13.13.22.26.21h-.03"/>
            </g>
            <g id="id57b1c448e9270b26560c50fc">
              <path id="id2f9456eea06144df28af24d7" class="cls-10" d="M48.81,107.16l4.38-.54v-9.49l-4.36-.68-.02,10.73h0"/>
            </g>
          </g>
          <g id="ida952df2a1309c61b03c3f86d">
            <path id="id128ce473dabe8ecf48b069be" class="cls-10" d="M56.85,119.95s-2.68,1.57-3.24-10.69c-3.23.42-17.16,1.56-19.52,1.56.65,11.24-3.82,9.63-3.82,9.63,0,0-.99,7.79-5.76,11.9,1.38,3.61,8.25,9.99,12.17,9.56,3.22-2.66,6.1-5.59,7.82-10.86.32.06-.65,4.75-.03,10.43,1.34,2.16,14.82-.88,15.38-2.95-1.46-9.63-2.98-18.59-2.98-18.59h0"/>
          </g>
          <g id="id9ca2133fe623bc0257eba415">
            <path id="idc6565a8b1c1f4046932bcbdd" class="cls-11" d="M39.33,117.82l10.37-1.11s2.17,9.56-4.35,10.42-6.02-9.33-6.02-9.33h0"/>
          </g>
          <g id="id553a3baf33b08204024b93f6">
            <path id="idb595c389e47209a502df19c6" class="cls-7" d="M38.23,112.48c.09.68-.4,1.29-1.09,1.38-.67.09-1.3-.4-1.38-1.08-.09-.68.4-1.29,1.09-1.38.67-.09,1.3.4,1.38,1.08h0Z"/>
          </g>
          <g id="idf261cb0645741210768e4f7b">
            <path id="id5d1f5d33c04945a134d150b1" class="cls-7" d="M52.51,111.43c.09.68-.4,1.29-1.09,1.38-.67.09-1.3-.4-1.38-1.08-.09-.68.4-1.29,1.09-1.38.67-.09,1.3.4,1.38,1.08h0Z"/>
          </g>
        </g>
        <g id="id7d5a61972a5b3f3ab2b15361">
          <g id="id95e407564d745d1fddd4dd0b">
            <path id="id23cecb23fa179f6d784f33db" class="cls-6" d="M88.25,115.25l-9.76-87.1c-.13-.55-.69-.89-1.23-.75h0c-.55.13-.89.68-.77,1.23l9.51,87.16c.12.55.67.89,1.23.77l.26-.06c.55-.13.9-.68.77-1.24h0"/>
          </g>
          <g id="id8a59d8523ed43842c929c13b">
            <g id="idd4d7b8f1b166fd96fddff8f8">
              <g id="id67de5da58d6726ede946e187">
                <path id="id15e53d54d2ba4e8129f6a7e2" class="cls-4" d="M74.81,17.77s-3.42-8.27-6.43-17.77c-4.32,6.04-6.67,9.5-5.56,12.49,0,0,4.94,10.98,11.99,5.28h0"/>
              </g>
              <g id="ide50d2516aa6064e36ef2cb59">
                <path id="id5e5211248b9ec8782d15ac86" class="cls-15" d="M74.81,17.77s-.27-.65-.71-1.78c-5.94,2.84-11.27-3.5-11.27-3.5,0,0,4.94,10.99,11.99,5.28h0"/>
              </g>
              <g id="id68749dcb1c5a1f1492d86ccb">
                <path id="id37454996e1dcd9bddd1e8db2" class="cls-17" d="M77.29,24.18s-5.35,1.76-7.14,2.35c-1.79.59-3.16-.98-3.97-3.55-.81-2.57-3.37-10.49-3.37-10.49,0,0,4.41,6.99,11.99,5.28.95,2.78,2.47,6.42,2.47,6.42h.01"/>
              </g>
            </g>
            <g id="id9c2e6377b16b2cd49fa21e14">
              <g id="id3ec94ff5c3b3a96fd45a54a1">
                <path id="idacf2eb9a070e5d26486950fa" class="cls-2" d="M83.3,21.93s8.27-3.42,17.77-6.42c-6.04-4.32-9.5-6.66-12.49-5.56,0,0-10.99,4.95-5.28,11.99h0"/>
              </g>
              <g id="idec81c21a818812bd6f7f2a20">
                <path id="ida2a00c278ed95b917067903d" class="cls-27" d="M83.3,21.93s.65-.27,1.78-.71c-2.84-5.94,3.5-11.27,3.5-11.27,0,0-10.99,4.95-5.28,11.99h0"/>
              </g>
              <g id="id3cdf76c5c82acf3fe3537b36">
                <path id="id69609954f62281da02c9ebc4" class="cls-14" d="M76.87,24.41s-1.76-5.35-2.35-7.14.98-3.16,3.55-3.96c2.57-.81,10.49-3.37,10.49-3.37,0,0-6.99,4.41-5.28,11.99-2.78.95-6.42,2.47-6.42,2.47h0s0,.01,0,.01"/>
              </g>
            </g>
            <g id="id0b39569e7ccddf0c198af36b">
              <g id="id0c6e5fa969f2aab4aa338a05">
                <path id="idf1f43ae61168bd5782f67738" class="cls-10" d="M78.57,30.42s3.42,8.27,6.42,17.77c4.32-6.04,6.67-9.5,5.56-12.49,0,0-4.94-10.98-11.99-5.28h0"/>
              </g>
              <g id="id8d041b4ca95c83704a910a71">
                <path id="id56ea233b4b6f30c10f9187dc" class="cls-26" d="M78.57,30.42s.27.65.71,1.78c5.94-2.84,11.27,3.5,11.27,3.5,0,0-4.94-10.98-11.99-5.28h0"/>
              </g>
              <g id="idd925149c153c50b4c55a81d7">
                <path id="idb0b692bcbd780c81c329f5e1" class="cls-25" d="M76.1,24s5.35-1.76,7.14-2.35c1.79-.59,3.16.98,3.97,3.55.81,2.57,3.37,10.49,3.37,10.49,0,0-4.41-6.99-11.99-5.28-.95-2.78-2.47-6.42-2.47-6.42h-.01"/>
              </g>
            </g>
            <g id="ida8d3f9019d47caf2a95fbb00">
              <g id="id5f988ecd94ce2b0b2a75524e">
                <path id="idd2c0ee3642daa41a6e82a94d" class="cls-1" d="M70.09,26.26s-8.27,3.42-17.77,6.42c6.04,4.32,9.5,6.66,12.49,5.56,0,0,10.99-4.95,5.28-11.99h0"/>
              </g>
              <g id="id4567e80a6ecc1879c6a7eb59">
                <path id="idd238552d01ee887a67c798c9" class="cls-3" d="M70.09,26.26s-.65.27-1.78.71c2.84,5.94-3.5,11.27-3.5,11.27,0,0,10.99-4.95,5.28-11.99h0"/>
              </g>
              <g id="idd1da483cd1d8256e9a93b73e">
                <path id="id859d3f52ab55bd4d6a06de0c" class="cls-21" d="M76.51,23.78s1.76,5.35,2.35,7.14c.59,1.79-.98,3.16-3.55,3.96-2.57.81-10.49,3.36-10.49,3.36,0,0,6.99-4.41,5.28-11.99,2.78-.95,6.42-2.47,6.42-2.47h0s0-.01,0-.01"/>
              </g>
            </g>
            <g id="idccea7e9c1bd141eabb6520cb">
              <path id="id09976670093698895f0f8fea" class="cls-16" d="M77.47,20.36c1.77.54,2.77,2.43,2.22,4.2-.54,1.77-2.43,2.77-4.2,2.21-1.77-.54-2.77-2.43-2.22-4.2.54-1.77,2.43-2.77,4.2-2.21h0Z"/>
            </g>
          </g>
        </g>
        <g id="id728feacd2c47c146d16739d2">
          <g id="id732996bd82a369bddcff7610">
            <path id="id47d2ca61720e655038c072f8" class="cls-24" d="M82.78,100.11c-.29-.28-.66-1.3-.21-2.18.67-1.32,1.68-1.41,1.85-.99.2.5-.64,1.43-.64,1.43,0,0,.3.31.05,1.29-.24.99-1.06.44-1.06.44h0"/>
          </g>
          <g id="id977642edebe54390b3c4db7a">
            <path id="ide028e7dc11e955f29cd8938d" class="cls-24" d="M84.25,96.93c.55-1.3,2.46-2.36,2.95-1.8.49.55-.07,1.25-.07,1.25,0,0,.82-.06.92.63.11.79-.6,1.09-.6,1.09,0,0,.9-.28,1.11.48.13.5-.38.93-.38.93,0,0,.69-.09.53.84-.15.92-2.83,1.25-3.12.95-.49-.51.63-1.05.63-1.05,0,0-1.51.65-1.79-.05s1.11-1.2,1.11-1.2c0,0-1.21.31-1.35-.31s.72-1.04.72-1.04c0,0-1.02.15-.66-.71v-.02h0"/>
          </g>
        </g>
        <g id="id9683c7bc05c98c1c05770d39">
          <g id="iddd8aaab4741a2ad49d627149">
            <path id="id48642c9d3c41aa326eedfe3d" class="cls-5" d="M62.29,53.97c3.89,16.6-4.63,31.75-20.11,37.21-15.49,5.46-32.03-.84-39.41-16.22-7.77-16.15,1.36-36.54,21.04-35.9,12.11-11.68,33.9-4.65,38.48,14.9h0"/>
          </g>
          <g id="id7b07dcbfa7c85d3ea4db4f29">
            <path id="id2c48ec274c18c57357dfdeaa" class="cls-24" d="M16.18,80.31c5.03,13.62,19.01,18.75,32.14,13.9,13.11-4.85,20.4-17.85,15.36-31.47-5.04-13.62-19.57-20.24-32.68-15.39-13.11,4.85-19.84,19.34-14.81,32.95h0"/>
          </g>
          <g id="ideec52d64338509a3004d4393">
            <g id="idaa5b103e1ab35bc76a2ef135">
              <path id="id2ca6d7178e73ce208c323f2b" class="cls-24" d="M17.08,80.09s-1.34-2.65-4.86-1.9c-3.7.8-3.54,5.95-.67,8.09,2.86,2.14,6.84.84,7.34-1.76l-1.81-4.44h0"/>
            </g>
            <g id="id9056577fc4c7e956562a3511">
              <path id="ided5c0f310a98c52de15a7574" class="cls-19" d="M11.94,79.66c2.2-1.17,5.41,2.3,2.96,5.47.39-3.33-1.17-3.93-2.37-2-.29-.95.09-1.74,1.53-2.09-.52-1.2-2.11-1.37-2.11-1.37h0"/>
            </g>
          </g>
          <g id="id494761f45d69bf4db874d8aa">
            <path id="ida7c04947085c8465e8ef07fa" class="cls-8" d="M41.75,75.24c.8.22.54-1.58,2.01-2.06,1.51-.48,2.24,1.2,2.78.41.44-.65-.98-2.54-3.41-1.66-2.04.73-2.13,3.11-1.36,3.32h0"/>
          </g>
          <g id="id85ceedbe8411766d2c0163e2">
            <g id="ida599fc9a0a86d61654b8adb9">
              <g id="id34ee66efae9fe7c0be5dff520">
                <path id="id5afba796b0f11b522e89fac7" class="cls-20" d="M38.04,85.38c-.56-1.63,3.73-2.41,7.87-3.84,4.15-1.43,7.06-3.39,7.62-1.76s.06,6.74-4.98,8.66c-5.2,1.97-9.95-1.42-10.51-3.05"/>
                <path id="id4768b88bedb6ba18330707b9" class="cls-12" d="M44.62,84.12c.45.51,1,1.21.97,1.63-.03.49-.47.9-.84,1.03-.19.06-.35.06-.45-.05-.19-.2-.55-1.33-.78-2.09h0c-.22.15-.41.33-.58.52h0c-1.29,2.41.3,4.29,1.4,3.78l.16-.14c.03-.07-.03-.05-.06.06.86.05,1.94.02,3.19-.41.34-.12.69-.25,1.04-.39h0c.19-.62.2-1.29-.03-1.94-.56-1.62-2.33-2.48-4.03-2.01h0"/>
                <path id="id1b37b359929f1e7f91e370be" class="cls-18" d="M45.43,88.01c-.26-.76.42-1.68,1.52-2.06s2.2-.07,2.46.69-.42,1.68-1.52,2.06-2.2.07-2.46-.69"/>
                <path id="ide4fcb97deb2050395483b477" class="cls-16" d="M51.16,79.48c-1.32.46-3.12,1.33-5.24,2.06-1.79.62-3.61,1.12-5.05,1.61-.64.22-1.2.44-1.65.67h0l.79.86,11.84-4.14-.4-1.15h0c-.09.03-.19.06-.28.09h0M43.09,88.76h0c1.55.38,3.34.41,5.2-.23.09-.03.18-.06.27-.1,1.74-.66,2.94-1.7,3.74-2.85l-9.21,3.18"/>
                <path id="id5a9bd25086a55faaa2cc1c6a" class="cls-9" d="M38.04,85.38c-.56-1.63,3.73-2.41,7.87-3.84,4.15-1.43,7.06-3.39,7.62-1.76s.06,6.74-4.98,8.66c-5.2,1.97-9.95-1.42-10.51-3.05"/>
              </g>
            </g>
          </g>
          <g id="idc87795bdd46fce87ce829a93">
            <g id="id3e5ae12254fc7b8926fd0150">
              <path id="idbcd7c1a73ff43a16f3c965b3" class="cls-13" d="M33.56,76.31c.5,1.96-.69,3.96-2.65,4.46-1.96.5-3.96-.69-4.46-2.65-.5-1.96.69-3.96,2.65-4.46s3.96.69,4.46,2.65h0Z"/>
            </g>
            <g id="ida44d161ec29e9aa1647bde4d">
              <path id="id5331692a3331f9e9ff1af48c" class="cls-16" d="M29.6,76.38c.08.6-.34,1.17-.92,1.27-.58.11-1.1-.29-1.18-.89-.08-.6.34-1.17.92-1.27.58-.11,1.11.29,1.18.89h0"/>
            </g>
            <g id="ideb84f1b80ff7db7107819950">
              <path id="idd28bacb4477b4624ec32e32e" class="cls-16" d="M32.54,78.17c.03.31-.18.59-.46.65-.3.06-.56-.14-.61-.45-.03-.31.17-.59.47-.65s.56.15.61.45h0"/>
            </g>
          </g>
          <g id="id711a567acbec0c068e8576d8">
            <g id="idc0a2e9b0c5fcd3a5fbdbf1d5">
              <path id="id7cdff75dd0a2a157240349ba" class="cls-13" d="M59.84,66.88c.5,1.96-.69,3.96-2.65,4.46-1.96.5-3.96-.69-4.46-2.65-.5-1.96.69-3.96,2.65-4.46,1.96-.5,3.96.69,4.46,2.65h0Z"/>
            </g>
            <g id="id714699eca628fee1f5aa7f5c">
              <path id="idc01ccc85396d4bd6da5d6bbd" class="cls-16" d="M55.88,66.93c.08.6-.34,1.17-.92,1.27-.59.11-1.11-.29-1.18-.89-.08-.6.33-1.17.92-1.27.59-.11,1.12.29,1.18.89h0"/>
            </g>
            <g id="idf8840ea20a8224870753b0e5">
              <path id="id8116de044de74fcfa60c5e55" class="cls-16" d="M58.81,68.73c.03.31-.18.59-.47.65-.3.06-.56-.14-.61-.45-.03-.31.17-.59.46-.65s.56.15.6.45h0"/>
            </g>
          </g>
          <g id="idf1376ffbdac1e04d6c220b93">
            <path id="id74e8f0a764227908506b7c79" class="cls-8" d="M33.47,84.7c.37,1.13-.79,2.52-2.58,3.1-1.79.58-3.53.13-3.91-1-.37-1.13.79-2.52,2.58-3.1,1.79-.58,3.53-.13,3.91,1h0Z"/>
          </g>
          <g id="idef1adf69262dd0d4b87f0d0d">
            <path id="idf4e9065ce19605ad58d177b1" class="cls-8" d="M63.61,73.73c.41,1.12-.7,2.55-2.46,3.19-1.78.64-3.54.27-3.95-.85-.41-1.12.7-2.55,2.46-3.19,1.78-.64,3.54-.27,3.95.85h0Z"/>
          </g>
          <g id="id73906a0a80efc5b686baab9a">
            <path id="id9293df47a60ea6436691b317" class="cls-13" d="M27.27,70.03c2.49-1.84,4.22,1,2.39,1.71-1.98.75-3.36,2.1-3.68,2.01-.71-.21-.1-2.68,1.3-3.71h0"/>
          </g>
          <g id="idd2142349466cfcf9c11701e8">
            <path id="idfb8e718adffee229346e3788" class="cls-13" d="M54.28,60.32c-3.1.17-2.62,3.46-.76,2.83,2.01-.68,3.93-.52,4.11-.8.41-.61-1.63-2.13-3.37-2.04h0"/>
          </g>
          <g id="id0ac944f8c855e41557cb38bd">
            <path id="idd89247677a4c81d879c572ee" class="cls-5" d="M63.01,59.69c-1.08,2.77-15.13-2.58-26.04-9.51-5.19,13.34-17.65,25.52-21.86,27.25C-1.27,46.09,51.03,19.97,63.02,59.69h0"/>
          </g>
          <g id="idbd847205e4bcf095e45f6409">
            <g id="id472b36bd972587d3d88eaa7f">
              <path id="id377cd23632a9058e3670f207" class="cls-13" d="M33.29,43.88s12.48,7.63,25.57,3.63c-8.6.25-25.57-3.63-25.57-3.63h0"/>
            </g>
            <g id="id77b45b9045762aa7695bb96e">
              <path id="idc14c5ffbc4112a116d2ed53c" class="cls-13" d="M31.8,39.96s12.8,2.38,20.89-1.42c-9.81.49-20.89,1.41-20.89,1.41h0"/>
            </g>
          </g>
          <g id="iddd0f28303e029fcacb0e0fe7">
            <g id="id4bd1c9e53fd69c5f298ce870">
              <path id="idfccc483c0d882e69077f6f02" class="cls-13" d="M30.41,44.91s-4.76,13.83-17.41,19.06c6.8-5.28,17.41-19.07,17.41-19.07h0"/>
            </g>
            <g id="id4a1a2ea34f2ffacd11d0752b">
              <path id="idafad20bfcba119086610d52a" class="cls-13" d="M29.08,40.94s-8.36,9.98-17.02,12.2c7.87-5.85,17.02-12.2,17.02-12.2h0"/>
            </g>
          </g>
        </g>
      </g>
    </g>
  </g>
</svg>