<?xml version="1.0" encoding="UTF-8"?>
<svg id="Layer_2" data-name="Layer 2" xmlns="http://www.w3.org/2000/svg" viewBox="0 0 95.75 30.03">
  <defs>
    <style>
      .cls-1 {
        fill: #fff;
      }
    </style>
  </defs>
  <g id="Layer_1-2" data-name="Layer 1">
    <g id="ida77bc9b7b709746744bc01df">
      <path id="id5ccc228156d46a3bf4d289ae" class="cls-1" d="M0,14.16v1.7c0,7.82,6.34,14.16,14.16,14.16h67.43c7.82,0,14.16-6.34,14.16-14.16v-1.7c0-7.82-6.34-14.16-14.16-14.16H14.16C6.34,0,0,6.34,0,14.16h0Z"/>
    </g>
    <g id="id0bbdb13e7387746462fef657">
      <g id="id19975ec447d1af469d036183">
        <path id="idba8bddb36e1df52e995e06d1" d="M9.04,14.37c.38-1.12,1.03-1.95,1.98-2.45.67-.38,1.45-.57,2.33-.57s1.61.22,2.29.67c.81.52,1.4,1.3,1.76,2.35l-.2.47c-.22.13-.53.39-.91.75-.36.36-.64.69-.82.97h2.1v1.98h-3.62c-.23,0-.46-.12-.68-.36h-.07c-.22.26-.54.4-.93.42-.15,0-.28.03-.4.06-.58.2-.87.79-.87,1.75,0,1.3.92,1.95,2.77,1.95.61,0,1.19-.08,1.73-.26v.83l-.99,1.23c-.38.12-.79.19-1.22.19-1.44,0-2.58-.39-3.42-1.15-.8-.73-1.21-1.72-1.21-2.95,0-.79.19-1.47.57-2.05.42-.61,1.04-1.07,1.85-1.37-.14-.34-.37-.68-.71-1.04-.42-.47-.79-.79-1.1-.95l-.19-.47h0M15.01,14.27c-.14-.36-.42-.64-.83-.8-.26-.1-.53-.15-.83-.15-.4,0-.75.07-1.07.21-.35.16-.6.41-.72.73.19.12.48.4.87.83.42.5.7.88.83,1.19h.07c.15-.35.45-.78.9-1.27.34-.39.6-.65.8-.77v.02h0"/>
      </g>
      <g id="id115ed9b681b53a9da0cacf68">
        <path id="id88782ea92724cb7559c03460" d="M18.62,19.26c.34,0,.62.12.86.35.23.23.35.52.35.86s-.12.6-.35.84c-.23.23-.52.35-.86.35s-.61-.12-.83-.35c-.23-.23-.35-.51-.35-.83s.12-.62.35-.86c.23-.23.52-.35.84-.35h0M22.59,11.5v5.07h.77v1.98h-.47l-.67-.71h-.04c-.38.47-.87.71-1.48.71h-3.21v-1.98h2.44c.1,0,.17-.03.21-.09.04-.05.08-.12.08-.21v-4.77h2.37M21.37,19.27c.34,0,.62.12.86.35.23.23.35.52.35.86s-.12.6-.35.84c-.23.23-.52.35-.86.35s-.6-.12-.83-.35c-.22-.23-.34-.51-.34-.83s.12-.62.34-.86c.22-.23.5-.35.83-.35h0"/>
      </g>
      <g id="id49822c3433712bf88b5d2da8">
        <path id="id8a0a06f72d762969b402a908" d="M28.37,11.5v5.15c0,.45-.15.85-.45,1.21-.39.46-.88.68-1.47.68h-3.21v-1.98h2.52s.12-.01.15-.04c.04-.03.08-.09.08-.16v-4.86h2.37M26.88,19.27c.33,0,.61.12.83.35.23.23.35.51.35.86s-.12.6-.35.84c-.23.23-.52.35-.84.35s-.62-.12-.84-.35-.34-.51-.34-.83.12-.62.34-.86c.23-.23.52-.35.84-.35h0"/>
      </g>
      <g id="idf0c2925cbb9f324726bd79c6">
        <path id="id506d454fe80c50e9e5787013" d="M35.01,11.5v5.07h.77v1.98h-.8c-.12,1.18-.62,2.11-1.53,2.8-.77.57-1.66.84-2.7.84-.12,0-.29,0-.54-.01l-.97-1.21v-.81s.08.02.16.03c.27.05.49.07.7.07.85-.02,1.47-.23,1.88-.65.41-.42.62-1.06.62-1.91v-6.2h2.39"/>
      </g>
      <g id="idd347a2a47ca9b19c80db05d4">
        <path id="idb5c8cf4293a3a131ffa85d97" d="M40.78,7.57v9.08c0,.45-.14.85-.42,1.21-.39.46-.88.68-1.48.68h-3.21v-1.98h2.52s.12-.01.15-.04c.04-.03.08-.09.08-.16V7.56h2.36"/>
      </g>
      <g id="id93bcf586e6ed74c80da52b08">
        <path id="id6604597b78fb3d82119d5159" d="M45.27,7.57v10.4l-1.19.97h-1.17V7.57h2.36"/>
      </g>
      <g id="idf48efbbe806e978cf6c8b38c">
        <path id="idb9c3c636e16ed9a9f8b3d471" d="M60.77,7.57v9.01h.78v1.98h-.81c-.12,1.12-.57,2.02-1.36,2.67-.84.66-1.91.99-3.21.99h-1.34c-1.51,0-2.69-.44-3.54-1.31-.71-.74-1.06-1.72-1.06-2.95v-2.35l1.19-.95h1.17v3.01c0,.94.22,1.6.66,1.98s1.19.57,2.25.57,1.8-.19,2.24-.55c.45-.4.67-1.07.67-2V7.55h2.37"/>
      </g>
      <g id="id7ed11902520d70ec9e84573a">
        <path id="id7095b6e4113eab0ca976f815" d="M66.55,13.39c1.3-1.39,2.83-2.08,4.6-2.08,1.26,0,2.32.38,3.17,1.13.79.71,1.18,1.6,1.18,2.68v.86c0,.12,0,.32.01.6h.47v1.98h-.3l-.57-.71h-.03c-.39.47-.88.71-1.48.71h-12.18v-1.98h2.76v-5.07h2.36v1.89h.01M73.14,15.38c0-.66-.27-1.19-.8-1.58-.42-.32-.92-.47-1.49-.47-1.23,0-2.35.6-3.37,1.8-.06.1-.16.26-.31.47-.28.42-.49.74-.62.96h6.39c.15,0,.22-.07.22-.21v-.98h0"/>
      </g>
      <g id="id09cbe9f2ce2e52daba7eb3e9">
        <path id="idb3caf915a9022334dca66d2c" d="M78.66,16.57c-.12-.3-.21-.57-.27-.81-.09-.34-.14-.69-.14-1.07,0-.74.2-1.39.6-1.94.69-.95,1.68-1.43,2.97-1.43.92,0,1.67.25,2.26.75.65.54.96,1.25.96,2.11v2.46c0,.45-.14.85-.42,1.21-.39.46-.88.68-1.47.68h-7.27v-1.98h2.77M82.69,14.2c0-.32-.12-.56-.36-.73-.16-.12-.33-.17-.5-.17-.5,0-.86.23-1.07.68-.12.26-.17.57-.17.92,0,.68.21,1.17.62,1.45.25.14.56.21.95.21h.32c.14,0,.21-.07.21-.21v-2.16h0M81.83,8.12c.33,0,.6.12.83.34s.34.52.34.85-.12.61-.34.83c-.22.23-.5.35-.83.35s-.62-.12-.86-.35c-.23-.23-.35-.51-.35-.83s.12-.6.35-.84c.23-.23.51-.35.86-.35h0"/>
      </g>
    </g>
  </g>
</svg>