<?xml version="1.0" encoding="UTF-8"?>
<svg id="Layer_2" data-name="Layer 2" xmlns="http://www.w3.org/2000/svg" viewBox="0 0 93.59 102.23">
  <defs>
    <style>
      .cls-1 {
        fill: #3b332f;
      }

      .cls-2 {
        fill: #f27067;
      }

      .cls-3 {
        fill: none;
        stroke: #000;
        stroke-linecap: round;
        stroke-linejoin: round;
      }

      .cls-4 {
        fill: #502a2a;
      }

      .cls-5 {
        fill: #1a1715;
      }

      .cls-6 {
        fill: #fff;
      }

      .cls-7 {
        fill: #ef6464;
      }

      .cls-8 {
        fill: #fcb415;
      }

      .cls-9 {
        fill: #d99779;
      }

      .cls-10 {
        fill: #d48565;
      }

      .cls-11 {
        fill: #bd5454;
      }

      .cls-12 {
        fill: #b81f1f;
      }

      .cls-13 {
        fill: #eead86;
      }

      .cls-14 {
        fill: #ed3024;
      }

      .cls-15 {
        fill: #fbc6a4;
      }

      .cls-16 {
        fill: #180f0c;
      }

      .cls-17 {
        fill: #00b2c9;
      }
    </style>
  </defs>
  <g id="Layer_1-2" data-name="Layer 1">
    <g id="idab3f6c194ba61525d1f5f4db">
      <g id="id756f09e2bdbd11e7e286cece">
        <g id="id7e3a0eab087b89feec0ce60b">
          <path id="id3d3ba78a974d161d84611476" class="cls-15" d="M55.88,94.43c5.93-.14,10.27-1.59,12.96-3.43-.93-12.2-2.57-26.49-3.41-27.33-1.23-1.23-4.59-1.53-6.76-2.14v-3.79h-5.74v3.79c-2.18.61-5.54.91-6.76,2.14-.85.85-2.48,15.14-3.41,27.33,2.69,1.84,7.04,3.3,12.96,3.43h.17"/>
        </g>
        <g id="iddcf1f0760a2519cfb6d08fd4">
          <path id="id780d906738370b7ff40ba667" class="cls-13" d="M55.9,57.53h-2.61v3.86c.66-.42,4.3-.56,5.02,0v-3.86h-2.41"/>
        </g>
        <g id="id509548caaa6e6152a17b3d95">
          <path id="idc6262a1d0ce8d2514cdd049c" class="cls-9" d="M48.53,70.39c-.26.09-1.35.94-.16,1.06s.98-1.35.16-1.07h0"/>
        </g>
        <g id="ida5220ff17e4617dc9d5dc185">
          <path id="idd7f61d9092c72d9e1702e07d" class="cls-9" d="M61.88,70.75c-.25-.1-1.63-.23-.84.68.79.9,1.63-.32.84-.67h0"/>
        </g>
      </g>
      <g id="id8b8e4b59be1124c2c27bb890">
        <g id="id564f28878c8664fb2e0eec2d">
          <path id="id53c84a2e53a306925d187fa1" class="cls-8" d="M44.6,72.07s-.86,6.03-1.03,9.33c1.68,2.02,21.16,3,24.06.22-.11-4.03-.47-7.96-.71-10.16,6.9.39,24.6,4.07,25.27,12.41.97,12.11-10.86,18.11-35.67,18.34-23.49.23-38.55-7.45-38.39-17.3.2-12.55,26.47-12.87,26.47-12.87h0"/>
        </g>
        <g id="id74c7792aba07f4bb0e4ca16e">
          <g id="idd5d66061ed5d4b3ceb2f0485">
            <path id="id845f0fbca351a8ff5cd7daa1" class="cls-6" d="M26.8,88.1c-1.55,1.86,4.81,7.39,14.83,9,12.01,1.93,13.67-1.96,10.53-2.55-1.28-.24-7.64.69-13.88-1.89-9.06-3.74-10.23-6.06-11.48-4.56h0"/>
          </g>
          <g id="idcaa432318621ff5e2768ed27">
            <path id="id18e0f73647bfe5af47b21b88" class="cls-6" d="M80.25,77.64c.93-.97-2.32-3.24-5.5-4.07-2.9-.76-5.8-.64-5.67.36.08.65,3.29.8,6.32,1.79,3.03.99,4.38,2.41,4.85,1.92h0"/>
          </g>
          <g id="idc6d02902a6450aa3c35adbfa">
            <path id="id8239057c98d47f30ef63c7bd" class="cls-6" d="M66.57,95.1c-.22-.57-2.41-.05-4.62.05-2.31.12-4.64-.13-4.69,1.27-.11,2.73,10.49,1.76,9.32-1.33h0"/>
          </g>
        </g>
        <g id="id9497d66a4a30b175a22b245b">
          <g id="id3ade891c51ecb52e6c71d383">
            <path id="id044bb8a7b4104c80bebe29ea" class="cls-12" d="M6.44,65.83c-1.54.89-3.67,2.58-2.62,3.69,1.05,1.11,5.08-.12,7.99.3-2.14-2.46-5.38-3.99-5.38-3.99h.01"/>
          </g>
          <g id="idd730f5f12e08690a1188b7cf">
            <path id="ida5fca2f407658451eaaaacac" class="cls-8" d="M37.86,72.84c-3.73-.84-4.95-1.03-4.26-6.9.69-5.87-.69-14.6-7.7-15.18-7.02-.57-18.86,9.21-17.25,14.15,1.61,4.95,7.24,6.67,10.92,7.36,3.68.69,1.53,6.96-.2,8.46-.46,4.02,21.34-7.24,18.5-7.88h0"/>
          </g>
          <g id="id0b86d9c41dab7f5f9a9815a9">
            <path id="idc33b47f4bcdd3c174a22e08f" class="cls-14" d="M10.75,58.58c.54-.48,1.65.03,1.48,2.36-.18,2.32,1.97,4.73,3.28,6.85,1.31,2.11.04,3.27-3.6,2.31-3.64-.96-9.2-4-11.08-7.23-1.73-2.96-.56-5.15,1.58-3.82s4.11,1.41,5.87,1.43c1.76.03,1.84-1.36,2.47-1.91h0"/>
          </g>
          <g id="id0c75a27c29458b80cabbd4a6">
            <path id="id2fe59ac927be2cb47a27d0b1" class="cls-16" d="M22.36,57.74c-1.9-1.34-7.04,1.01-4.83,4.03,2.18,2.99,9.2-.93,4.83-4.03h0"/>
          </g>
        </g>
      </g>
      <g id="id0fae162386afbfda5e507b45">
        <path id="id467ea912fe76c8ef1c56d1f5" class="cls-15" d="M49.11,67.12c-11.14,3.29-19.97,12.41-19.97,12.41,0,0,1.26,3.25.22,3.64-1.03.38-1.69-1.5-1.69-1.5,0,0-1.65,2.4-2.3,3.43-.81,1.31-1.81.71-1.3-.54.31-.76.92-1.99.92-2.06-.14.09-1.3,1.48-1.99,2.24-1.02,1.13-2.01.02-1.14-.98.3-.34,1.87-2.21,1.93-2.29-.08.06-1.65,1.34-2.37,1.85-.85.61-1.57-.3-.72-1.16.36-.37,2.11-1.92,2.15-1.98-.42.21-1.97,1.31-2.44.8-.45-.49.39-1.34,1.87-2.21,1.54-1.71,2.92-2.72,4.36-2.27,8.26-7.82,17.45-12.7,20.37-13.27l2.11,3.91h0"/>
      </g>
      <g id="id0ea8c10303eaf4a039429ac4">
        <path id="id8e9107f89de8c9732e6c34bb" class="cls-15" d="M62.65,67.12c11.14,3.29,19.97,12.41,19.97,12.41,0,0-1.26,3.25-.23,3.64,1.03.38,1.69-1.5,1.69-1.5,0,0,1.65,2.4,2.3,3.43.81,1.31,1.81.71,1.3-.54-.31-.76-.92-1.99-.92-2.06.14.09,1.3,1.48,1.99,2.24,1.02,1.13,2.02.02,1.14-.98-.3-.34-1.86-2.21-1.92-2.29.08.06,1.65,1.34,2.36,1.85.85.61,1.57-.3.72-1.16-.36-.37-2.11-1.92-2.15-1.98.41.21,1.97,1.31,2.44.8.45-.49-.4-1.34-1.87-2.21-1.53-1.71-2.92-2.72-4.36-2.27-8.26-7.82-17.45-12.7-20.38-13.27l-2.11,3.91h0"/>
      </g>
      <g id="idf7e79d75e317825f39de2e8f">
        <g id="id8248cdd768d4c9466e0d52be">
          <path id="idce106688d447bc9732cb339f" class="cls-1" d="M33.69,19.79c-3.74,15.96,4.45,30.53,19.34,35.78,14.89,5.25,30.8-.81,37.9-15.6,7.47-15.53-1.31-35.14-20.24-34.52C59.05-5.78,38.1.98,33.69,19.78h0"/>
        </g>
        <g id="id686014ad6f0b2678c6ef3877">
          <path id="id972b35c9fe06759e1e8636d7" class="cls-15" d="M78.05,45.13c-4.84,13.1-18.29,18.04-30.91,13.37-12.61-4.66-19.62-17.16-14.78-30.26,4.84-13.1,18.82-19.47,31.43-14.8,12.61,4.66,19.09,18.59,14.24,31.68h.01"/>
        </g>
        <g id="id24b0acb22ac34e3f9e770e0c">
          <g id="id6982fa274fb56ae342b6e710">
            <path id="id9ed2f0531fcb4ad3c463c901" class="cls-15" d="M77.17,44.93s1.29-2.55,4.67-1.82c3.56.77,3.4,5.73.65,7.78-2.75,2.06-6.58.81-7.06-1.69l1.74-4.27h0"/>
          </g>
          <g id="id16892e0ec3735b555f522516">
            <path id="id219b49d3597f01612dcf9e35" class="cls-10" d="M82.12,44.5c-2.11-1.13-5.21,2.21-2.85,5.26-.37-3.2,1.12-3.77,2.28-1.92.28-.92-.09-1.68-1.47-2.01.5-1.16,2.03-1.32,2.03-1.32h0"/>
          </g>
        </g>
        <g id="id41a9bbeb0bb03b29826cd7f4">
          <path id="id224a18cfc202470354b1e4d2" class="cls-2" d="M53.46,40.26c-.77.21-.51-1.52-1.93-1.98-1.45-.47-2.15,1.16-2.67.39-.43-.63.94-2.44,3.29-1.6,1.96.7,2.05,2.99,1.31,3.19h0"/>
        </g>
        <g id="idfc7c8052ed7ea9202d284ca5">
          <g id="idc2a1dfc345ab42be2f586dfb">
            <g id="idf27fd3adc340513c418abcde0">
              <path id="id57486e77678222b4e6ca5a7f" class="cls-11" d="M42.53,45.23c.48-1.58,4.26.23,8.3,1.46s7.41,1.35,6.92,2.93-3.76,5.28-8.77,3.92c-5.16-1.4-6.93-6.73-6.45-8.31"/>
              <path id="id0fc1ddc53d2d3b524df48415" class="cls-4" d="M48.36,47.97c.07.65.09,1.5-.17,1.82-.3.36-.87.43-1.23.32-.18-.06-.31-.16-.32-.29-.03-.27.33-1.34.57-2.06h0c-.25,0-.5.02-.74.08h0c-2.36,1.14-2.19,3.51-1.05,3.73l.2-.02c.06-.04,0-.05-.08.01.64.53,1.5,1.11,2.71,1.48.33.1.67.2,1.02.29h0c.5-.37.88-.89,1.08-1.52.48-1.57-.41-3.25-2-3.84h0"/>
              <path id="idc6938e9d0a7e1da1d1536102" class="cls-7" d="M46.79,51.46c.23-.74,1.28-1.07,2.35-.75s1.75,1.19,1.53,1.93-1.28,1.07-2.35.75-1.75-1.19-1.53-1.93"/>
              <path id="id8a84cf5dd16df3974ff3c863" class="cls-6" d="M56.07,48.05c-1.29-.39-3.18-.73-5.24-1.36-1.74-.53-3.44-1.17-4.84-1.6-.62-.19-1.18-.34-1.67-.42h0l.13,1.11,11.56,3.47.34-1.12h0c-.09-.03-.18-.06-.27-.09h0M44.54,50.71h0c.99,1.17,2.37,2.21,4.17,2.76.09.03.18.05.26.08,1.73.47,3.25.34,4.52-.1l-8.96-2.73"/>
              <path id="id957e0aed3d153a30cdaa4a86" class="cls-3" d="M42.53,45.23c.48-1.58,4.26.23,8.3,1.46s7.41,1.35,6.92,2.93-3.76,5.28-8.77,3.92c-5.16-1.4-6.93-6.73-6.45-8.31"/>
            </g>
          </g>
        </g>
        <g id="idd9c784cbfdbcd7fa69a7e27c">
          <g id="id13570f7e310c4c4136ff4f8b">
            <path id="id8ff3f79e495b8a8aa1524c71" class="cls-5" d="M61.33,41.29c-.48,1.89.66,3.81,2.55,4.29,1.89.48,3.81-.66,4.28-2.55.48-1.89-.66-3.81-2.55-4.29-1.89-.48-3.81.66-4.28,2.55h0Z"/>
          </g>
          <g id="id95982704d1280a78a5b124ae">
            <path id="id71e8df69e6f9abd05a174ed5" class="cls-6" d="M65.14,41.34c-.07.57.33,1.13.88,1.22.56.1,1.06-.28,1.14-.85s-.32-1.13-.88-1.22c-.56-.1-1.08.28-1.14.85h0"/>
          </g>
          <g id="ide0391836cd29f9b5b78f596f">
            <path id="id4b1efe82ce371c0dc66f5a1b" class="cls-6" d="M62.31,43.07c-.03.29.17.57.45.62.29.05.54-.14.58-.43.03-.29-.16-.57-.45-.62-.29-.05-.54.15-.58.43h0"/>
          </g>
        </g>
        <g id="idb989c2b6e00ede1f33fbbe2c">
          <g id="id882bc3025370da7917c26725">
            <path id="idad139920675c52d44d16461c" class="cls-5" d="M42.37,31.03c1.13,1.59.75,3.79-.85,4.92s-3.79.75-4.92-.84-.75-3.79.85-4.92,3.79-.75,4.92.84h0Z"/>
          </g>
          <g id="id335947244514553925d03630">
            <path id="iddea7e2f22015d8090e2afe90" class="cls-6" d="M39.86,32.26c-.07.57.33,1.13.89,1.22.56.1,1.06-.28,1.14-.85s-.32-1.13-.88-1.22c-.56-.1-1.07.28-1.14.85h0"/>
          </g>
          <g id="id1fa7f42a747df85b20629cee">
            <path id="id398a7f47cf6217bf75a3eafb" class="cls-6" d="M37.05,34c-.03.29.17.57.45.62.29.05.54-.14.58-.43.03-.29-.16-.57-.45-.62-.29-.05-.54.15-.58.43h0"/>
          </g>
        </g>
        <g id="id0fe2b5c4f2496d964a23d2cb">
          <path id="id6f6428c9c40a549dce874e73" class="cls-2" d="M61.42,49.36c-.35,1.09.76,2.42,2.49,2.98,1.73.55,3.4.13,3.76-.96.35-1.09-.76-2.42-2.49-2.98-1.73-.55-3.4-.13-3.76.96h0Z"/>
        </g>
        <g id="id46e08e1b49e4a15ce7f7fa44">
          <path id="id07ade486b7e1bdbb4207e9fe" class="cls-2" d="M32.42,38.81c-.39,1.08.67,2.45,2.37,3.07,1.7.62,3.4.26,3.79-.82.39-1.08-.67-2.45-2.37-3.07-1.7-.62-3.4-.26-3.79.82h0Z"/>
        </g>
        <g id="id8af46ea31e50ad720da08575">
          <path id="id9a49b0599b91fbe650307ac5" class="cls-5" d="M67.38,35.24c-2.39-1.77-4.06.96-2.29,1.64,1.91.72,3.23,2.02,3.54,1.93.68-.2.09-2.58-1.25-3.57h0"/>
        </g>
        <g id="id186116fbc79f69f691dd64a4">
          <path id="id17466cb83403423d3ef9fffc" class="cls-5" d="M41.41,25.91c2.98.16,2.52,3.32.73,2.72-1.93-.65-3.78-.5-3.95-.77-.39-.59,1.57-2.04,3.24-1.96h0"/>
        </g>
        <g id="id2044f378faaf6d46ad4acbfd">
          <path id="id19cdddc34b941bac76cafffa" class="cls-1" d="M33.01,25.3c1.03,2.67,14.55-2.49,25.04-9.14,4.99,12.83,16.97,24.54,21.03,26.21,15.75-30.14-34.55-55.27-46.08-17.06h0"/>
        </g>
        <g id="id572dad476f5054457e3728fe">
          <g id="id9b3e509274dd79a1fa221add">
            <path id="idd9e26d089315a539264cc10b" class="cls-5" d="M61.58,10.09s-12,7.34-24.59,3.49c8.27.24,24.59-3.49,24.59-3.49h0"/>
          </g>
          <g id="idb2a15153dcd693e0a38353a6">
            <path id="idc9722dbb25cb362b6160d2b5" class="cls-5" d="M63.03,6.33s-12.31,2.29-20.09-1.37c9.43.47,20.09,1.36,20.09,1.36h0"/>
          </g>
        </g>
        <g id="id96a2f7c4ab4ea282ac7a1619">
          <g id="id7541ebe854521a288b1fdd15">
            <path id="id94bdcc5b1ec0b77b769f80b3" class="cls-5" d="M64.36,11.1s4.58,13.3,16.75,18.34c-6.54-5.08-16.75-18.34-16.75-18.34h0"/>
          </g>
          <g id="id8068e88d0206c26385e9d084">
            <path id="id3108c1498a64d137883834e4" class="cls-5" d="M65.64,7.27s8.05,9.6,16.37,11.74c-7.57-5.63-16.37-11.73-16.37-11.73h0"/>
          </g>
        </g>
      </g>
      <g id="id79652518031382b8e378eb95">
        <g id="ida82bdd2455214da10875ba98">
          <path id="id91eeca52efa04a6eb343fb54" class="cls-17" d="M79.03,37.82c.34,2.31-1.39,13.64-13.39,11.82-10.72-3.43-8.35-16.39-6.44-19.13,7.47,2.89,19.84,7.31,19.84,7.31h0"/>
        </g>
        <g id="id4b10ad0a05cc14532beab838">
          <path id="idcad102acfb4b8e561968fdc2" class="cls-17" d="M32.32,20.62c-1.79,1.51-7.98,11.14,2.21,17.73,10.3,4.53,17.11-6.75,17.48-10.08-7.51-2.77-19.71-7.65-19.71-7.65h0"/>
        </g>
        <g id="id405b371b2b96011aba45664a">
          <path id="id0a2e3ce175fb59b630334904" class="cls-14" d="M28.13,25.88c-.34,1.83-.51,4.58.6,7.28.98,2.39,2.73,4.19,5.21,5.37.33.16.67.31,1.03.44,4.1,1.55,8.26.82,12.03-2.12,2.87-2.24,4.99-5.43,5.75-7.43.04-.1.07-.21.1-.31l4.71,1.78c-.81,1.82-1.41,5.64-.8,9.3.52,3.2,2.12,7.34,6.69,9.51.32.15.64.28.99.41,3.04,1.15,5.91,1.07,8.53-.22,2.62-1.29,4.31-3.48,5.27-5.07,1.6-2.68,2.55-6.18,1.14-7.41-.07-.06-.16-.11-.25-.14-5.78-2.19-18.8-7.11-19.93-7.53h0l-6.84-2.58-19.93-7.53c-.1-.03-.19-.05-.29-.05-1.87,0-3.48,3.24-4.04,6.32h0M59.1,31.49c2.62.99,13.82,5.22,19.22,7.26.08.21.17.83-.14,2.05-.35,1.34-1.03,2.79-1.94,4.07-1.65,2.35-5.32,5.94-11.22,3.71-3.34-1.26-5.49-3.79-6.4-7.5-1.01-4.13-.09-8.39.47-9.6h.01M30.83,22.89c.56-1.12,1.04-1.51,1.25-1.62l19.23,7.26c-.37,1.28-2.5,5.07-5.99,7.5-3.14,2.19-6.42,2.65-9.76,1.39-5.9-2.23-6.26-7.35-5.95-10.21.17-1.56.6-3.1,1.23-4.34h0"/>
        </g>
      </g>
    </g>
  </g>
</svg>
