<?xml version="1.0" encoding="UTF-8"?>
<svg id="Layer_2" data-name="Layer 2" xmlns="http://www.w3.org/2000/svg" viewBox="0 0 87.33 27.38">
  <defs>
    <style>
      .cls-1 {
        fill: #fff;
      }
    </style>
  </defs>
  <g id="Layer_1-2" data-name="Layer 1">
    <g id="id2b1f586d0ea4701b7af001db">
      <g id="id2defc1e45ac4ae90ebd6dd2e">
        <g id="id59749b9e7f212f6c1a907ad7">
          <path id="id3157e534d08237635b755462" class="cls-1" d="M0,12.92v1.55C0,21.6,5.79,27.38,12.92,27.38h61.49c7.13,0,12.92-5.78,12.92-12.92v-1.55c0-7.13-5.78-12.92-12.92-12.92H12.92C5.78,0,0,5.78,0,12.92h0"/>
        </g>
        <g id="id386a14e5697d4b57344b53e3">
          <g id="id5136e73b4f559f0d6840f6ee">
            <path id="id319c49243168817379515233" d="M11.47,17.05c-.28-.58-.42-1.17-.42-1.78,0-.93.32-1.71.98-2.32.63-.58,1.41-.87,2.32-.87s1.75.32,2.39.96c.6.6.9,1.34.9,2.24,0,.63-.14,1.23-.42,1.78h.61v1.87h-2.1c-.6,0-1.05-.09-1.35-.26h-.09c-.3.17-.75.26-1.36.26h-5.89c-.78,0-1.45-.29-2-.86-.52-.54-.78-1.19-.78-1.96v-1.9l1.13-.91h1.11v2.82c0,.24.08.45.21.62.17.21.39.32.66.32h4.09,0M14.34,9.04c.31,0,.57.11.79.32.21.21.32.48.32.81s-.11.59-.32.81-.48.32-.79.32-.59-.11-.81-.33-.33-.48-.33-.79.11-.58.33-.79c.23-.23.5-.33.82-.33h0M14.34,17.02c.72-.15,1.07-.68,1.07-1.56,0-.39-.07-.73-.24-1.02-.23-.33-.5-.5-.84-.5-.31,0-.57.14-.77.42-.21.29-.32.65-.32,1.11,0,.89.36,1.41,1.09,1.56h0"/>
          </g>
          <g id="idb19e04e108108f6756ce447c">
            <path id="id1ae5d3d9cb4c3e5647db30c4" d="M18.81,19.59c.32,0,.59.11.81.33.22.22.33.49.33.81s-.11.58-.33.79c-.22.21-.49.33-.81.33s-.58-.11-.79-.33c-.21-.22-.33-.49-.33-.79s.11-.59.33-.82c.22-.22.48-.33.79-.33h0M22.56,12.23v4.68s0,.09.01.13h.73v1.87h-.45l-.63-.67h-.04c-.35.44-.83.67-1.41.67h-3.03v-1.87h2.31c.09,0,.17-.03.21-.08.04-.04.07-.12.07-.2v-4.52h2.24-.01M21.4,19.59c.32,0,.59.11.81.33.22.22.33.49.33.81s-.11.58-.33.79c-.22.22-.49.33-.81.33s-.57-.11-.79-.33-.32-.49-.32-.79.11-.59.32-.82c.21-.22.48-.33.79-.33h0"/>
          </g>
          <g id="id5dacbe8b3ee0fafb3d105917">
            <path id="idf52bd8578e29b24d470b054a" d="M28.05,14.03c1.22-1.31,2.68-1.98,4.36-1.98,1.21,0,2.2.35,3.01,1.07.74.67,1.12,1.51,1.12,2.53v.82c0,.12,0,.3,0,.57h.45v1.87h-.28l-.55-.67h-.03c-.37.44-.84.67-1.41.67h-11.55v-1.87h2.61v-4.81h2.24v1.79h.01M34.29,15.9c0-.62-.26-1.13-.75-1.49-.41-.3-.87-.45-1.41-.45-1.16,0-2.23.57-3.19,1.71-.05.1-.16.24-.3.45-.27.4-.47.7-.59.91h6.05c.14,0,.21-.06.21-.2v-.93h-.01"/>
          </g>
          <g id="idbc3ada7ec5d5acb91efbe018">
            <path id="id469038105c01a000be012652" d="M41.76,8.51v8.61c0,.43-.14.81-.41,1.15-.37.44-.84.65-1.41.65h-3.03v-1.87h2.4c.05,0,.1,0,.15-.04.04-.04.07-.09.07-.16v-8.33h2.24,0"/>
          </g>
          <g id="idcf32debf2f548bdcfaab7812">
            <path id="ide4b8c082848c2e1085411f7b" d="M46,8.51v9.86l-1.13.92h-1.11v-10.78h2.24"/>
          </g>
          <g id="id5467e22936f39c3546448de0">
            <path id="id5f8ee6445657f12da3c09684" d="M60.7,8.51v8.54h.74v1.87h-.77c-.1,1.06-.53,1.9-1.29,2.53-.8.62-1.81.94-3.03.94h-1.28c-1.43,0-2.55-.41-3.36-1.23-.67-.71-1-1.63-1-2.78v-2.23l1.13-.9h1.11v2.85c0,.89.2,1.52.62,1.88.42.36,1.13.55,2.14.55s1.71-.17,2.12-.52c.43-.38.63-1.01.63-1.9v-9.58h2.24"/>
          </g>
          <g id="id74e99d4417a5d5a185e22079">
            <path id="id7bb4a2f2be46e17f0a1c582e" d="M66.18,14.03c1.23-1.31,2.68-1.98,4.36-1.98,1.21,0,2.21.35,3.01,1.07.74.67,1.12,1.51,1.12,2.53v.82c0,.12,0,.3.01.57h.45v1.87h-.28l-.55-.67h-.03c-.36.44-.83.67-1.4.67h-11.55v-1.87h2.62v-4.81h2.24v1.79h0M72.43,15.9c0-.62-.26-1.13-.75-1.49-.41-.3-.87-.45-1.41-.45-1.16,0-2.22.57-3.19,1.71-.05.1-.16.24-.3.45-.27.4-.47.7-.59.91h6.05c.14,0,.21-.06.21-.2v-.93h-.01"/>
          </g>
          <g id="id5910762a4d65d34a0466e4b7">
            <path id="ida4f3f1d3bc53e53f9a3e5f75" d="M77.67,17.05c-.12-.28-.2-.54-.25-.77-.08-.32-.13-.65-.13-1.02,0-.71.19-1.32.57-1.85.65-.9,1.6-1.35,2.82-1.35.87,0,1.59.24,2.15.71.61.51.91,1.18.91,2v2.35c0,.43-.14.81-.41,1.15-.36.44-.83.65-1.4.65h-6.89v-1.87h2.63,0M81.48,14.79c0-.3-.12-.54-.34-.69-.15-.11-.31-.16-.48-.16-.47,0-.81.21-1.02.65-.11.24-.16.54-.16.87,0,.64.19,1.11.59,1.38.23.14.53.2.9.2h.3c.14,0,.2-.06.2-.2v-2.06h0M80.68,9.03c.31,0,.57.11.79.32.21.21.32.48.32.81s-.11.58-.32.79c-.22.21-.48.33-.79.33s-.59-.11-.82-.33-.33-.48-.33-.79.11-.58.33-.79c.23-.23.49-.33.82-.33h0"/>
          </g>
        </g>
      </g>
    </g>
  </g>
</svg>
