<?xml version="1.0" encoding="UTF-8"?>
<svg id="Layer_2" data-name="Layer 2" xmlns="http://www.w3.org/2000/svg" viewBox="0 0 93.29 151.61">
  <defs>
    <style>
      .cls-1 {
        fill: #00b8b5;
      }

      .cls-2 {
        fill: #d91f26;
      }

      .cls-3 {
        fill: #bce3e3;
      }

      .cls-4 {
        fill: #3b332f;
      }

      .cls-5 {
        fill: #a974b1;
      }

      .cls-6 {
        fill: #753789;
      }

      .cls-7 {
        fill: #f27067;
      }

      .cls-8 {
        fill: none;
        stroke: #000;
        stroke-linecap: round;
        stroke-linejoin: round;
      }

      .cls-9 {
        fill: #864399;
      }

      .cls-10 {
        fill: #502a2a;
      }

      .cls-11 {
        fill: #1a1715;
      }

      .cls-12 {
        fill: #009996;
      }

      .cls-13 {
        fill: #fff;
      }

      .cls-14 {
        fill: #ef6464;
      }

      .cls-15 {
        fill: #d48565;
      }

      .cls-16 {
        fill: #ef4b23;
      }

      .cls-17 {
        fill: #bd5454;
      }

      .cls-18 {
        fill: #f37920;
      }

      .cls-19 {
        fill: #fbc6a4;
      }

      .cls-20 {
        fill: #99999b;
      }

      .cls-21 {
        fill: #e14e20;
      }
    </style>
  </defs>
  <g id="Layer_1-2" data-name="Layer 1">
    <g id="iddc8fb8a5a342752c4c4f49c5">
      <g id="idbfdc1764ada86967ef5b3e9a">
        <path id="idb626e5345098be6ce4a37916" class="cls-3" d="M54.36,139.04c15.46,1.3,16.02,9.57,3.32,11.33-9.5,1.31-27.51,2.8-42.11-2.51-12.84-4.67,14.33-10.87,38.79-8.82h0"/>
      </g>
      <g id="id53a9b8ff699b9b60b2c921a3">
        <g id="ide82e495ad8bc10f989080321">
          <path id="id0eca81beefa880dc7aeb88f7" class="cls-20" d="M35.24,111.82c1.12.34-3.66,13.53-7.71,14.47-4.21.97-14-7.03-14-7.03,0,0-1.46-3.57,3.23-6.07,2.03,1.93,4.69,3.07,4.69,3.07,0,0,1.69-3.16,2.3-8.38,1.94,1.2,8.34,2.96,11.48,3.93h0"/>
        </g>
        <g id="id062f4e54c04e807eb9cd5ee0">
          <g id="iddfd361aec77f12d0c6dd4049">
            <path id="id5dcaff6ac9afbd9355faa9e5" class="cls-5" d="M50.53,69.74c4.51,1.07,10.26,2.16,20.64-5.13,1.65,1.01,2.86,3.52,2.58,4.42-1.59,4.66-11.98,14.45-21.15,11.46-.03-3.49-2.07-10.77-2.07-10.77h0"/>
          </g>
          <g id="id834a8e2fd055259a03dfca6d">
            <path id="id08d006765cefd913127e5804" class="cls-1" d="M69.91,65.22c.07-.86,1.42-1.3,1.41-2.07,0-.78.52-3.36,1.51-3.6,1.55-.38,1.38,2,1.38,2,0,0,4.39-2.98,6.25-.45,1.61,2.19-.27,4.73-2.28,5.79-2.19,1.16-3.1,1.22-3.73,1.99-.62.79-1.22.85-1.78.31-.38-.36-2.89-2.61-2.78-3.97h0"/>
          </g>
          <g id="idcb281f2df1d178fe1e53ec24">
            <g id="id0741dcc0d3a8d74fde4ebc27">
              <path id="id6039e2738096ebd9c0723a7d" class="cls-13" d="M36.71,12.22c4.11.89,8.65,3.64,5.33,6.79-1.5,1.42-7.16,2.48-13.77.92-6.8-1.61,2.29-9.02,8.43-7.69h0"/>
            </g>
            <g id="id20c54df58762a86682b17b68">
              <path id="id0284887b819b291d18cc89ba" class="cls-13" d="M19.56,15.74c3.47-1.56,6.71.69,3.4,2.95-3.32,2.25-8.73-.55-3.4-2.96h0"/>
            </g>
            <g id="id70ba87f558649c51b3c432be">
              <path id="id20d6e3e1e1a15e317305b3b6" class="cls-13" d="M86.82,46.84c3.14,2.08,7.13,5.68,6.37,9.23-.8,3.68-8.36,8-14.01,5.79-5.66-2.22-5.26-8.9-3.15-11.94,2.1-3.05,6.84-5.69,10.79-3.07h0"/>
            </g>
          </g>
        </g>
        <g id="id971a430f4d6062271e0ca728">
          <g id="id52d1ee82598760f9bf8875f6">
            <path id="id37a45f2b866a25f6e66be6ce" class="cls-18" d="M18.21,115.34c-.7,1.18-1.53,2.11-2.94,4.66-.85,1.53-1.13.97-2.46.28-.5-.27-.83-.42-1.54-.84-1.1,1.79-5.56,4.38-9.04,2.07-2.34-1.55-1.97-5.13.83-8.47,2.73-3.25,4.81-4.41,5.46-4.26,1.01.25,6.44,3.19,8.86,5.16.38.31,1.28.61.82,1.4h0"/>
          </g>
          <g id="id02f4863fe8bfd588561cd08d">
            <path id="idd085c6d65796e0b35bd9a56c" class="cls-21" d="M5.26,115.28c-1.84,2.2-2.79,4.47-2.79,6.37-.32.17-.79.07-1.21-.17-2.47-1.34-1.02-5.12,1.8-8.47,2.73-3.25,4.96-4.59,5.63-4.55,1.54.1,2.18.67,2.91,1.77-.87-.06-3.25,1.35-6.33,5.02h-.01"/>
          </g>
          <g id="id898f3ce228807731af90b4b9">
            <path id="idfc5fb66c89314f7d78c8e8ea" class="cls-21" d="M16.92,121.6c-1.52,1.84-4.09-.03-3.83-1.33.28-1.3,2.75-5.61,3.77-6.81.95-1.12,3.94,1.02,3.27,2.02-2.37,3.58-3.22,6.12-3.22,6.12h0"/>
          </g>
          <g id="id1f1d59560d591732b44567f2">
            <path id="id8cb449413b16ea5cb494340c" class="cls-6" d="M11.25,118.8c-.17,1.92-1.21,4.44-3.22,5.02-.62.17-.26,1.1.35.91,2.34-.68,3.65-3.56,3.83-5.8.05-.63-.93-.78-.99-.14h.01"/>
          </g>
          <g id="id5c2efefcd2f8b05d9bb3bfce">
            <path id="id23be77501dd8072bd5154c05" class="cls-6" d="M12.45,117.31c.47-1.79-1.66-3-3.18-3.03-.64,0-.52.97.11.98.94,0,2.37.8,2.08,1.89-.17.62.82.75.99.14h0"/>
          </g>
          <g id="id5523d84eb7cb20c14a623ec4">
            <path id="id782d05cc9f552542d2d3bcc9" class="cls-21" d="M7.45,125.69c-.85-.68-1-1.93-.31-2.79.69-.85,1.93-1,2.79-.31.85.68,1,1.93.31,2.79-.69.85-1.93,1-2.79.31h0Z"/>
          </g>
          <g id="idd92ce3217a179c23c1d039fa">
            <path id="id2c0e52035239dddfc3ed7fd4" class="cls-21" d="M9.04,116.55c-.85-.68-1-1.93-.31-2.79.69-.85,1.93-1,2.79-.31.85.68,1,1.93.31,2.79-.69.85-1.93,1-2.79.31h0Z"/>
          </g>
        </g>
        <g id="id4baaa8c690cae78798a3754b">
          <path id="idc6db966b18d7ee161afd783d" class="cls-20" d="M39.27,110.78s2.94,10.09,3.41,25.95c.31,2.05,2.89,2.89,4.59,1.87,2.75-6.89,5.82-16.35,5.25-28.58-6.3-.86-13.27.76-13.27.76h0"/>
        </g>
        <g id="id52643bee7493705a1f0fe65f">
          <g id="idfcd7d8afce8b9468b989f6c4">
            <path id="id456ad70ff12954c8a5bb22f6" class="cls-18" d="M43.03,133.03c1.38-.1,2.62.06,5.51-.23,1.74-.17,1.44.38,1.62,1.87.06.55.12.93.17,1.75,2.11-.12,6.75,2.09,6.83,6.27.05,2.8-3.11,4.53-7.45,4.12-4.23-.41-6.37-1.45-6.6-2.08-.37-.97-1.02-7.12-.79-10.21.03-.5-.23-1.41.69-1.47h0"/>
          </g>
          <g id="idbf143fc5742f7b4deb5bca50">
            <path id="id41cecb7052891b025fec6117" class="cls-21" d="M50.34,143.72c2.85.28,5.27-.23,6.84-1.31.33.17.5.61.55,1.09.3,2.8-3.64,3.74-8,3.33-4.23-.41-6.6-1.47-6.94-2.05-.79-1.33-.68-2.18-.19-3.4.44.75,2.96,1.9,7.73,2.36h0"/>
          </g>
          <g id="idcc963bf7aa3d3621d9103630">
            <path id="id433140a2e2eb7d8e5512246d" class="cls-21" d="M49.6,130.95c2.34.51,1.84,3.66.57,4-1.27.34-6.24.12-7.78-.23-1.44-.33-.89-3.97.3-3.84,4.27.46,6.92.06,6.92.06h0"/>
          </g>
          <g id="id23355831fa2d4550ff4a7b86">
            <path id="id723664f23925085256cc2cad" class="cls-6" d="M49.84,136.79c1.67-.95,4.34-1.52,5.96-.2.5.4,1.05-.42.55-.82-1.9-1.53-4.99-.98-6.96.13-.55.31-.12,1.2.44.88h0"/>
          </g>
          <g id="id88be10a7729b4caa7fc1ce94">
            <path id="id53e459621cf95aae377946a5" class="cls-6" d="M47.93,136.66c-1.74.63-1.53,3.08-.69,4.33.35.53,1.1-.12.75-.65-.52-.78-.67-2.4.38-2.79.6-.22.16-1.11-.44-.89h0"/>
          </g>
          <g id="id2f3d4c5be90ac26ee50cec42">
            <path id="idbc5e23bc13f1b8d806e4115d" class="cls-21" d="M57.67,136.02c-.08,1.1-1.03,1.92-2.12,1.84-1.1-.08-1.92-1.02-1.84-2.11.08-1.1,1.02-1.92,2.12-1.84,1.1.08,1.92,1.02,1.84,2.11h0Z"/>
          </g>
          <g id="id2e03239c8916f6697fc0a74b">
            <path id="id963ad6bc48d40e61e71afd56" class="cls-21" d="M49.24,139.89c-.08,1.1-1.03,1.92-2.11,1.84-1.1-.08-1.92-1.03-1.84-2.11.08-1.1,1.02-1.92,2.11-1.84,1.1.08,1.92,1.03,1.84,2.11h0Z"/>
          </g>
        </g>
        <g id="id41559940417a459924b0c549">
          <path id="id4e5cc56a4841d8fa7d4e186c" class="cls-9" d="M27.48,72.6c-2.23,2.46-13.96,28.12-13.05,30.45,1.7,4.33,16.27,9.37,24.82,9.5,8.3.12,23.69-2.48,25.73-6.62,1.36-2.77-1.63-13.27-11.91-32.99-3.01-5.68-20.46-6.01-25.59-.33h0"/>
        </g>
        <g id="id1ac37632b3816fe429e9ad99">
          <path id="idb39e1a18b424a637e6405ee0" class="cls-5" d="M14.75,100.76c5.76,6.93,30.63,13.27,50.47,3.13,1.32.54.53,3.78-.37,4.58-1,.89-26.25,12.45-50.21-2.78-1.75-1.65-1.02-5.12.12-4.92h0"/>
        </g>
        <g id="id53753afb52344899797b8528">
          <path id="id15ea6be5b62545764c21bb99" class="cls-4" d="M46.68,101.09c-.09,1.23-1.15,2.16-2.38,2.07s-2.16-1.15-2.07-2.38c.09-1.23,1.15-2.16,2.38-2.07s2.16,1.15,2.07,2.38h0Z"/>
        </g>
        <g id="idec62c42f1d878d2a14e5fe3b">
          <path id="ideb1465c2296328f26ea8feeb" class="cls-2" d="M42.78,88.83c-.09,1.23-1.15,2.16-2.38,2.07-1.23-.09-2.16-1.15-2.07-2.38.09-1.23,1.15-2.16,2.38-2.07,1.23.09,2.16,1.15,2.07,2.38h0Z"/>
        </g>
        <g id="ide8464ab0c6143b25616a0de6">
          <g id="id708a9149a5f85cb9202f82f1">
            <g id="id698cc7cd39a6bbd6eefe3ad3">
              <path id="id1a4e33023ac5246f38c5e2cb" class="cls-1" d="M16.86,93.72c2.37.29,4.07.03,4.15.02.15-.02.28-.18.24-.33-.02-.15-.18-.26-.34-.24-.02,0-2.15.32-4.9-.16-.17,0-.31.08-.33.25-.03.15.08.31.23.34.32.06.64.1.94.13h0"/>
            </g>
            <g id="id283c8f5ba7a9d6d7b9f3608f">
              <path id="idf742236c7db51bf5a3d8682b" class="cls-1" d="M16.08,95.77h0c2.88.31,5.01-.16,5.09-.18.17-.03.27-.18.22-.35-.03-.15-.19-.25-.35-.22-.02,0-2.13.46-4.9.17-.15-.02-.31.1-.32.27-.02.15.1.31.25.32h0"/>
            </g>
            <g id="id6214e6841bc6f9ec0753b0a6">
              <path id="id1cb09a58e69fbf1ef623ea9b" class="cls-1" d="M18.46,97.86c1.89.23,3.36-1.21,3.44-1.27.11-.11.11-.3,0-.4-.11-.12-.3-.12-.42,0-.02.02-1.63,1.58-3.47,1-.15-.06-.32.03-.36.19-.05.15.03.32.19.37.22.06.43.1.64.13h0"/>
            </g>
            <g id="idda958f0dc392e72270f9104f">
              <path id="id0384b309e9840161d3e26397" class="cls-1" d="M16.6,92.43c1.89.23,3.36-1.21,3.44-1.27.11-.11.11-.3,0-.42s-.3-.12-.42,0c-.02,0-1.63,1.58-3.47,1-.15-.06-.32.03-.36.19-.05.15.03.32.19.37.22.06.43.1.64.13h0"/>
            </g>
            <g id="id0f1b1ccc8738b2cffdec4612">
              <path id="idc1996c26dc9093ba3d2f2f09" class="cls-1" d="M19.52,99.89c1.97.24,3.41-.93,3.49-.99.12-.1.14-.28.04-.4s-.29-.14-.42-.04c-.08.06-1.99,1.6-4.36.47-.14-.08-.32,0-.4.13-.07.14,0,.32.14.39.52.25,1.02.39,1.49.44h0"/>
            </g>
            <g id="iddc0138c12bd9a36b8dd08a01">
              <path id="id10b035f6a21f718dd168b0a3" class="cls-1" d="M16.46,90.37c1.97.24,3.41-.93,3.49-.99.12-.11.14-.28.04-.4s-.29-.14-.42-.04c-.08.06-1.99,1.6-4.36.47-.14-.08-.32,0-.4.13-.07.14,0,.32.14.39.52.25,1.02.39,1.49.44h0"/>
            </g>
            <g id="ida5090605518363b0d2dda60e">
              <path id="id44d00ecb4dd20510ced61416" class="cls-1" d="M18.76,102.15h0c2.73.25,4.64-1.89,4.71-1.97.11-.12.1-.31-.03-.4-.12-.11-.31-.1-.41.02-.02.02-1.79,2.01-4.21,1.77-.17,0-.3.11-.32.27,0,.15.11.3.26.32h0"/>
            </g>
            <g id="id23648ab4818e355f5a74d27e">
              <path id="iddca5ccb80cea7b39c667cbe4" class="cls-1" d="M20.18,103.63h0c2.94.24,4.23-1.64,4.29-1.73.09-.13.05-.32-.08-.4-.14-.09-.32-.06-.41.07-.05.06-1.17,1.67-3.76,1.46-.15,0-.31.11-.31.27,0,.15.1.3.25.32h0"/>
            </g>
          </g>
          <g id="id0523e49c22c92e38dda8b830">
            <path id="idee305cd18e7054d0533f21c0" class="cls-1" d="M50.63,71.28s-8.62,23.82-26.38,31.43c-2.69-4.31-5.31-14.08-5.31-14.08,0,0,10.15-2.56,20.09-16.12,2.77,1.9,11.61-1.21,11.61-1.21h-.01"/>
          </g>
          <g id="id9537977ae173c1b84936ba59">
            <path id="idecead8553ebb4d006f32ddd5" class="cls-1" d="M50.21,69.38s-7.95,2.53-16.17,1.69c.65,4.58,15.55,7.58,15.55,7.58,0,0,2.54-3.21,5.24-6.14.3-1.67-4.63-3.14-4.63-3.14h0"/>
          </g>
          <g id="idec4b6be61f4d0540ceff8798">
            <path id="idf932746ca6ffafc53ead4bfa" class="cls-12" d="M28.79,68.84s11.37,4.74,23.02,6.23c1.95,1.63-4.59,9.63-5.68,10.01-1.09.37-13.16-3.15-20.09-10.59-1.65-4.29,2.74-5.67,2.74-5.67h0"/>
          </g>
        </g>
        <g id="idf95fb17f2a4a5a7e01a455e0">
          <path id="id4a6194d258e9c8e8cb908625" class="cls-5" d="M26.19,74.63c2.58,4.53,7.4,11.68,19.79,14.38.38,1.88-.65,4.49-1.51,4.89-4.5,2-17.36-1.72-23.67-8.33-4.29-5.08.68-12.94,5.39-10.94h0"/>
        </g>
        <g id="id8478c8258ec3b793dd478698">
          <path id="id86ff4c32795543aedf613a7d" class="cls-1" d="M44.69,88.5c.69-.53,1.92.15,2.49-.37.56-.53,2.83-1.89,3.68-1.33,1.32.89-.54,2.37-.54,2.37,0,0,5.17,1.2,4.57,4.28-.52,2.66-3.66,3.01-5.8,2.25-2.35-.82-3.01-1.46-4-1.39-1,.08-1.45-.31-1.43-1.1,0-.52-.04-3.9,1.03-4.73h0"/>
        </g>
        <g id="id1d7c8960f5bc4be8d1ebfb7a">
          <g id="ida1f6de956522444428121b75">
            <path id="id0bf5fd81741b5cf0085a83d5" class="cls-4" d="M64.57,34.32c3.68,15.66-4.37,29.96-18.98,35.12-14.61,5.16-30.23-.8-37.21-15.31-7.33-15.24,1.29-34.49,19.86-33.88,11.44-11.03,32-4.38,36.32,14.07h.01"/>
          </g>
          <g id="id212bfefda76795ee7ebc9ac7">
            <path id="id20b99b8c41292241ddd77852" class="cls-19" d="M21.06,59.18c4.75,12.85,17.95,17.7,30.32,13.13,12.38-4.57,19.25-16.84,14.5-29.69-4.75-12.85-18.47-19.1-30.85-14.53s-18.72,18.25-13.98,31.1h0"/>
          </g>
          <g id="idd0e30323703cc120d656bff5">
            <g id="id106fc555181db4127f02d1d0">
              <path id="id78ad881f80e33ebb4116b846" class="cls-19" d="M21.9,58.98s-1.26-2.5-4.58-1.79c-3.49.75-3.34,5.62-.65,7.64,2.69,2.02,6.47.79,6.93-1.67l-1.71-4.19h0"/>
            </g>
            <g id="id5b839ce27a335b27bd84e5d2">
              <path id="idd4a4a7440e7cdbd71503741e" class="cls-15" d="M17.06,58.56c2.06-1.11,5.11,2.17,2.8,5.16.37-3.14-1.1-3.7-2.24-1.87-.28-.89.09-1.64,1.44-1.97-.49-1.14-1.99-1.29-1.99-1.29h0"/>
            </g>
          </g>
          <g id="idbf204f10f49735937ce60808">
            <path id="idc962ff9ca9847979d2a92c23" class="cls-7" d="M45.19,54.39c.75.21.5-1.5,1.9-1.95,1.42-.46,2.12,1.13,2.63.37.41-.61-.92-2.4-3.23-1.57-1.92.68-2,2.93-1.28,3.13h0"/>
          </g>
          <g id="id9cf87105ea95e1937e3a7728">
            <g id="id9879b8e3f19cf521e0de2ec1">
              <g id="id5876edbd1b45a98fc56589ba0">
                <path id="idaf0680568c8ceb0d0f3f9683" class="cls-17" d="M41.2,63.48c-.64-1.6,3.59-2.6,7.66-4.25s6.87-3.75,7.51-2.16.41,6.73-4.52,8.9c-5.09,2.24-10.01-.9-10.65-2.5"/>
                <path id="idb462821f299b8cb6b1778bd0" class="cls-10" d="M47.7,61.87c.48.48,1.06,1.15,1.05,1.58,0,.49-.42.92-.79,1.07-.18.07-.35.08-.45-.02-.2-.19-.61-1.3-.89-2.04h0c-.21.16-.39.35-.55.55h0c-1.16,2.47.53,4.27,1.6,3.7l.15-.14c.02-.07-.03-.05-.06.06.86,0,1.94-.08,3.16-.58.33-.13.67-.28,1.01-.44h0c.16-.63.13-1.3-.13-1.94-.64-1.59-2.46-2.36-4.13-1.79h0"/>
                <path id="id2554fbfc66189bc99e514f73" class="cls-14" d="M48.72,65.72c-.3-.74.33-1.7,1.41-2.14s2.19-.19,2.49.56-.33,1.7-1.41,2.14-2.19.19-2.49-.56"/>
                <path id="idf1e2ba0b8e4d84cc4784cfa1" class="cls-13" d="M53.99,56.89c-1.3.53-3.05,1.49-5.13,2.33-1.76.71-3.55,1.3-4.96,1.88-.62.25-1.18.5-1.62.75h0l.83.81,11.61-4.75-.46-1.13h0c-.09.03-.18.07-.28.11h0M46.41,66.59h0c1.57.3,3.36.23,5.18-.5.09-.04.18-.07.26-.11,1.7-.75,2.84-1.85,3.58-3.04l-9.03,3.65"/>
                <path id="id2e7672988108e19938c83d4f" class="cls-8" d="M41.2,63.48c-.64-1.6,3.59-2.6,7.66-4.25s6.87-3.75,7.51-2.16.41,6.73-4.52,8.9c-5.09,2.24-10.01-.9-10.65-2.5"/>
              </g>
            </g>
          </g>
          <g id="idc0e74ed081ba1595e41cf9f3">
            <g id="id417d70fdad2e6543bf7e7871">
              <path id="idddb2cb69694a984581033a34" class="cls-11" d="M37.46,55.4c.46,1.85-.66,3.74-2.51,4.2-1.85.46-3.74-.65-4.2-2.51-.46-1.85.66-3.74,2.51-4.2,1.85-.46,3.74.65,4.2,2.51h0Z"/>
            </g>
            <g id="id679e9d2f92538e0466728a20">
              <path id="id1b290385ad2ec28d3199e2b8" class="cls-13" d="M33.73,55.46c.07.56-.32,1.11-.86,1.2-.55.1-1.05-.28-1.12-.84-.08-.56.31-1.11.86-1.2s1.05.28,1.12.84h0"/>
            </g>
            <g id="id86272a553195d85bc13ac93c">
              <path id="idb4ed90e86076bba7fe4f34aa" class="cls-13" d="M36.49,57.16c.03.29-.17.56-.44.62-.28.06-.54-.14-.58-.43-.03-.29.17-.56.44-.61.28-.06.53.14.57.43h0"/>
            </g>
          </g>
          <g id="idb6ecc9e04725c80ca864ab0c">
            <g id="id394a533ec70dbefe4106c2b0">
              <path id="idcb0bc9cfc5c5f43ca9cb3db8" class="cls-11" d="M62.26,46.5c.46,1.85-.66,3.74-2.51,4.2-1.85.46-3.74-.65-4.2-2.51-.46-1.85.66-3.74,2.51-4.2,1.85-.46,3.74.65,4.2,2.51h0Z"/>
            </g>
            <g id="id5f2a409acef9aeb9c6d2406d">
              <path id="id462c2e732974822f215f5514" class="cls-13" d="M58.52,46.55c.06.56-.32,1.11-.87,1.2-.55.1-1.05-.28-1.12-.84-.08-.56.31-1.11.87-1.2s1.05.28,1.12.84h0Z"/>
            </g>
            <g id="id70fdf9186a2b371ca3e1f69f">
              <path id="idfd7141da89698ed320132d23" class="cls-13" d="M61.3,48.25c.03.29-.17.56-.45.62s-.54-.14-.57-.43.17-.56.45-.62.53.14.58.43h0"/>
            </g>
          </g>
          <g id="idf2044d73690702e232085b73">
            <path id="idf75ab113336663e78dcb8a82" class="cls-7" d="M37.38,63.33c.34,1.07-.74,2.38-2.43,2.93-1.69.54-3.34.13-3.69-.94-.34-1.07.74-2.38,2.43-2.93,1.69-.54,3.34-.13,3.69.94h0Z"/>
          </g>
          <g id="id4a765a550f20eb680662e89d">
            <path id="id6e80af0fb2fa621380afa74d" class="cls-7" d="M65.82,52.97c.39,1.05-.65,2.4-2.33,3.01-1.68.61-3.34.26-3.73-.81-.39-1.05.65-2.4,2.33-3.01s3.34-.26,3.73.81h0Z"/>
          </g>
          <g id="idbd29caef19375ed8f73880e2">
            <path id="id335d08eac1097d49c1237abd" class="cls-11" d="M31.52,49.47c2.35-1.74,3.99.94,2.25,1.61-1.87.71-3.17,1.98-3.48,1.9-.66-.2-.09-2.53,1.23-3.5h0"/>
          </g>
          <g id="idbc15bd8dbcd0cedf123d233b">
            <path id="idec8bb40161d8f417154747e5" class="cls-11" d="M57,40.32c-2.92.15-2.47,3.27-.71,2.67,1.9-.64,3.71-.49,3.88-.75.39-.58-1.54-2.01-3.18-1.92h.01"/>
          </g>
          <g id="id4019202b8e73426272cc4c49">
            <path id="id48b85c934e64b1d23a29334d" class="cls-4" d="M65.25,39.72c-1.01,2.62-14.29-2.44-24.57-8.97-4.89,12.6-16.66,24.08-20.64,25.71C4.58,26.88,53.94,2.23,65.25,39.71h0"/>
          </g>
          <g id="idb2dd147d6a3c10007967df36">
            <g id="idb63f8401d14fb4d119904215">
              <path id="idf1cd63c47542feb87e4ab500" class="cls-11" d="M37.21,24.8s11.77,7.21,24.13,3.42c-8.12.24-24.13-3.42-24.13-3.42h0"/>
            </g>
            <g id="idade20763e68431c5eae30919">
              <path id="ida4baf9506f112379093f2fd3" class="cls-11" d="M35.79,21.1s12.08,2.24,19.71-1.34c-9.25.46-19.71,1.34-19.71,1.34h0"/>
            </g>
          </g>
          <g id="idbd8d6300e6436704897a3297">
            <g id="id52bf4a32c7f49108289f548e">
              <path id="idcd8ad6b6505d25c7c49923d0" class="cls-11" d="M34.48,25.77s-4.49,13.05-16.44,17.99c6.41-4.98,16.44-17.99,16.44-17.99h0"/>
            </g>
            <g id="id0226e8f146499a7c50d573c3">
              <path id="id4d824290053d9dcd6c57aca8" class="cls-11" d="M33.23,22.02s-7.9,9.42-16.06,11.51c7.43-5.54,16.06-11.51,16.06-11.51h0"/>
            </g>
          </g>
        </g>
        <g id="idbbba049ce30623f3cab8a160">
          <g id="id700b10a9d1f643f89c87b846">
            <path id="id6018ba4bdebc85a08c2b019f" class="cls-16" d="M17.94,19.7c-2.12,1.95-4.5,2.88-2.08-.69-2.85,2.02-4.72.94-2.04-1.67-3.98,1.67-5.28.07-1.81-1.82-3.71,1.28-4.03-1.82.11-2.35-5.83.04-5.44-2.51-.89-2.63-5.09-1.36-3.36-4.96,1.53-3.14-3.25-2.93-1.9-5.93,2.21-2.33-1.08-3.36.62-5.89,2.67-1.14-.09-3.32,1.32-5.64,2.6-.64.17-4.02,3.18-4.69,2.94-.18,3.15-2.91,6.11-1.24,2.67,1.87,5.04-2.39,4.85-.95.87,1.53,4.67-1.61,4.67.67,1.17,2.31,4.35-.23,5.49.96,1.2,1.81,4.23-.29,2.45,1.34-.78,1.6,5.22.74,2,3.33,2,3.33l-12.34,4.15h-.02"/>
          </g>
          <g id="idc781aaadd43e7db5b33e446b">
            <path id="idf32cf19de718cec2de0b94d2" class="cls-9" d="M8.93,54.69c1.17-.68,25.43-22.38,54.65-23.83C58.3,10.03,30.4,7.25,18.81,15.06-3.54,30.14,8.93,54.7,8.93,54.7h0"/>
          </g>
          <g id="id7181e6b5a3233326cba97aba">
            <path id="id7d7229a75caf4ff1b050cad0" class="cls-5" d="M4.11,39.66s-.47,12.17,4.63,16.98c15.39-4.69,50.8-17.53,57.7-23.13-1.3-8.3-7.96-14.33-8.58-15.14-12.27,6.12-23.6,11.21-53.75,21.29h.01"/>
          </g>
        </g>
      </g>
    </g>
  </g>
</svg>
