<?xml version="1.0" encoding="UTF-8"?>
<svg id="Layer_2" data-name="Layer 2" xmlns="http://www.w3.org/2000/svg" viewBox="0 0 107.9 33.83">
  <defs>
    <style>
      .cls-1 {
        fill: #fff;
      }
    </style>
  </defs>
  <g id="Layer_1-2" data-name="Layer 1">
    <g id="id504304cc4c8426beeec0d540">
      <g id="id635dfdc1e71b22dc3e317a94">
        <g id="id145e6fdee9520456b3bc4bb3">
          <path id="id28c4b8ba7e3ba9e0a29511e4" class="cls-1" d="M0,15.96v1.91C0,26.69,7.15,33.83,15.96,33.83h75.98c8.81,0,15.96-7.15,15.96-15.96v-1.91c0-8.82-7.15-15.96-15.96-15.96H15.96C7.15,0,0,7.15,0,15.96h0"/>
        </g>
        <g id="id40d9a8910e736066199bc717">
          <g id="id812ac84547e833f60b4f2361">
            <path id="id1146a1460bbcd8f00b3ac021" d="M11.8,19.35c-.29-.19-.56-.49-.78-.91-.28-.6-.41-1.17-.41-1.72,0-1.19.38-2.1,1.15-2.72.65-.52,1.49-.78,2.51-.78.38,0,.87.07,1.47.18v1.94c-.46-.08-.81-.13-1.05-.13-.57,0-.99.13-1.23.38-.25.25-.37.68-.37,1.27,0,.51.13.89.4,1.18.26.28.63.42,1.1.42.07,0,.13,0,.18-.01.81-.12,1.53-.17,2.16-.17.09,0,.24,0,.43.01h.07v.85l-1,1.24c-.7.04-1.42.16-2.13.37-1,.25-2.02.73-3.06,1.43l-1.2-1.89c.61-.37,1.19-.69,1.78-.94h-.04"/>
          </g>
          <g id="idea92d68821301c64b311434a">
            <path id="id4bf168c1befeae0aedf6dfac" d="M21.34,9.18v9.18s0,.05.01.09h.01c.02.09.09.13.18.13h.6v2.06h-1.3c-.52,0-.98-.19-1.38-.56-.41-.4-.61-.86-.61-1.42v-9.48h2.48"/>
          </g>
          <g id="id9e25400da674cceb37bf539d">
            <path id="id2fc5b846b00815073968e72e" d="M27.38,13.27v5.16s0,.09.01.14h.78v2.06h-.49l-.71-.73h-.02c-.4.49-.93.73-1.56.73h-3.35v-2.06h2.56c.09,0,.17-.03.22-.09.06-.05.09-.13.09-.22v-4.99h2.46M23.5,9.76c.35,0,.64.12.87.37.24.24.37.54.37.88s-.12.63-.37.87c-.25.24-.54.37-.88.37s-.65-.12-.89-.37c-.24-.24-.35-.54-.35-.87s.12-.65.35-.89c.24-.24.53-.36.88-.36h0M26.36,9.77c.35,0,.64.12.87.37.24.24.37.54.37.88s-.12.63-.37.87c-.25.24-.54.37-.88.37s-.65-.12-.89-.37c-.24-.24-.35-.54-.35-.87s.12-.65.35-.89.53-.36.88-.36h0"/>
          </g>
          <g id="id1e189fa21ee092b71ac062aa">
            <path id="idcb434b44e71bfa11b95df250" d="M46.62,13.27v4.69c0,.11,0,.28.01.53v.08h.79v2.06h-.61l-.6-.75h-.05c-.4.51-.91.76-1.55.76h-3.68l-.6-.75h-.05c-.4.51-.91.76-1.55.76h-3.68l-.6-.76h-.05c-.4.51-.91.76-1.55.76h-4.8v-2.06h4.1c.14,0,.22-.08.22-.22v-3.23h2.46v2.87c0,.11,0,.26.01.47v.11h3.16c.14,0,.22-.08.22-.22v-4.16h2.47v3.71c0,.19,0,.4.01.68h3.16c.14,0,.22-.08.22-.22v-5.08h2.52M38.12,9.77c.35,0,.64.12.87.36s.35.53.35.89-.12.65-.35.89c-.24.24-.53.36-.87.36s-.65-.12-.89-.37c-.24-.24-.37-.54-.37-.87s.12-.64.37-.88c.25-.24.54-.37.89-.37h0M39.53,7.51c.32,0,.58.1.81.33.23.21.33.49.33.81s-.11.57-.33.79c-.21.22-.49.33-.81.33s-.57-.1-.8-.33c-.23-.21-.33-.48-.33-.79s.11-.58.33-.8c.21-.22.47-.33.79-.33h0M40.95,9.77c.35,0,.65.12.89.37s.35.54.35.88-.12.63-.35.87c-.24.25-.53.37-.88.37s-.63-.12-.87-.37c-.25-.24-.37-.54-.37-.87s.12-.65.37-.89c.24-.24.54-.36.87-.36h0"/>
          </g>
          <g id="idcd5d20662f5c28699fe064e9">
            <path id="id56f68a943d53235766ff15f6" d="M52.66,9.18v9.48c0,.46-.14.89-.45,1.26-.41.48-.92.72-1.55.72h-3.35v-2.06h2.65s.12-.01.16-.05c.05-.04.08-.1.08-.17v-9.18h2.47"/>
          </g>
          <g id="id96403e6aef5687e4e27c8999">
            <path id="idb2147eba32da47b4a9067f99" d="M57.35,9.18v10.87l-1.25,1.01h-1.22v-11.88h2.47"/>
          </g>
          <g id="idd018c9aa970b4f329b24ebfb">
            <path id="id0ce2021dc5d5263bc8ed6bc8" d="M73.52,9.18v9.4h.81v2.06h-.85c-.12,1.17-.6,2.1-1.42,2.79-.88.69-1.99,1.03-3.35,1.03h-1.41c-1.58,0-2.82-.45-3.69-1.35-.73-.78-1.1-1.8-1.1-3.06v-2.45l1.25-1h1.22v3.14c0,.98.22,1.67.69,2.07.45.4,1.25.59,2.35.59s1.88-.18,2.34-.57c.46-.41.7-1.11.7-2.1v-10.56h2.47-.01"/>
          </g>
          <g id="idab56c2992938b5128a6de06d">
            <path id="id050ced14e17bc483b76e75c6" d="M79.56,15.26c1.36-1.45,2.95-2.18,4.8-2.18,1.33,0,2.43.4,3.31,1.18.82.73,1.23,1.67,1.23,2.8v.89c0,.13,0,.33.01.62h.49v2.06h-.31l-.61-.73h-.03c-.4.49-.91.73-1.55.73h-12.72v-2.06h2.89v-5.31h2.46v1.97h.01M86.44,17.31c0-.69-.29-1.25-.83-1.65-.45-.33-.97-.49-1.55-.49-1.28,0-2.46.63-3.52,1.89-.06.11-.17.26-.33.49-.3.44-.51.77-.65,1.01h6.66c.16,0,.24-.08.24-.22v-1.02h0"/>
          </g>
          <g id="idcec03428eaf6a0fa0c3586d2">
            <path id="id16bb11684c5cae66f3231ef2" d="M92.22,18.58c-.13-.3-.22-.59-.29-.85-.09-.34-.14-.73-.14-1.11,0-.78.21-1.46.62-2.03.73-1,1.77-1.49,3.11-1.49.96,0,1.75.26,2.36.78.68.57,1.01,1.3,1.01,2.2v2.58c0,.46-.14.89-.45,1.26-.41.48-.91.72-1.54.72h-7.59v-2.06h2.91M96.43,16.1c0-.33-.13-.58-.38-.77-.17-.12-.34-.17-.53-.17-.52,0-.89.24-1.11.72-.12.26-.17.58-.17.95,0,.72.21,1.22.65,1.51.25.14.58.22.99.22h.33c.14,0,.22-.08.22-.22v-2.26h0M95.55,9.76c.35,0,.64.12.88.36s.36.53.36.89-.12.64-.36.88c-.24.25-.53.37-.88.37s-.65-.12-.89-.37c-.25-.24-.37-.54-.37-.87s.12-.64.37-.88c.24-.24.55-.37.89-.37h0"/>
          </g>
        </g>
      </g>
    </g>
  </g>
</svg>